<svg xmlns="http://www.w3.org/2000/svg" xmlns:xlink="http://www.w3.org/1999/xlink" width="563.43" height="484.387" viewBox="0 0 563.43 484.387"><defs><style>.a{fill:#f0eff7;}.b{fill:#417221;}.c{fill:#a796a7;}.d{fill:#855f85;}.e{fill:#c5c7e0;}.e,.n,.r{mix-blend-mode:soft-light;isolation:isolate;}.f{fill:#593b50;}.g{fill:url(#a);}.h{fill:#3c1e45;}.i{fill:#34122f;}.j{fill:#451a3e;}.k{fill:url(#b);}.l{fill:url(#c);}.m{fill:#735d79;}.n,.o,.r{fill:#fff;}.n{opacity:0.5;}.p,.q{fill:#ea5757;}.q{opacity:0.225;}.s{fill:#f7f6fb;}.t,.u{fill:#f33;}.u{opacity:0.509;}.v{fill:#674b6f;}.w{fill:#3e2645;}.x{fill:#3d2145;}.y{fill:#930d45;}.z{fill:url(#d);}.aa{fill:#ff596d;}.ab{fill:#ffc53b;}.ac{fill:#263238;}.ad{fill:#ffc727;}.ae{fill:#fed047;}.af{fill:#406483;}.ag{fill:#133c59;}.ah{fill:#a6a6a6;}.ai{fill:#e24040;}.aj{fill:#f1f3f5;}.ak{opacity:0.326;}</style><linearGradient id="a" x1="0.5" y1="1" x2="0.5" gradientUnits="objectBoundingBox"><stop offset="0" stop-color="#654a6c"/><stop offset="1" stop-color="#593854"/></linearGradient><linearGradient id="b" x1="0" y1="0.5" x2="1" y2="0.5" xlink:href="#a"/><linearGradient id="c" x1="0.5" y1="1" x2="0.5" gradientUnits="objectBoundingBox"><stop offset="0" stop-color="#654b6c"/><stop offset="1" stop-color="#593954"/></linearGradient><linearGradient id="d" y1="0.5" x2="1" y2="0.5" gradientUnits="objectBoundingBox"><stop offset="0" stop-color="#dd0e24"/><stop offset="1" stop-color="#d33"/></linearGradient></defs><g transform="translate(0 0)"><circle class="a" cx="237.455" cy="237.455" r="237.455" transform="translate(60.03 9.476)"/><circle class="a" cx="46.689" cy="46.689" r="46.689" transform="translate(470.052)"/><g transform="translate(0 18.174)"><g transform="translate(0)"><path class="b" d="M243,268.9a27.626,27.626,0,0,1,2.582,2.347c1.643,1.408,3.99,3.756,7.042,6.807s6.337,6.807,10.328,11.267c3.756,4.46,7.746,9.624,12.206,15.492,4.225,5.868,8.685,12.44,12.91,19.482s8.45,14.787,12.44,22.768c4.225,7.981,7.746,16.431,11.5,25.116,3.521,8.685,6.807,17.839,9.624,26.993,1.408,4.46,2.817,9.154,4.225,13.849.7,2.347,1.174,4.694,1.878,6.807.469,2.347,1.174,4.695,1.643,6.807.47,2.347,1.174,4.46,1.643,6.807s.939,4.46,1.408,6.807l2.817,13.379c.7,4.46,1.643,8.685,2.347,13.144.7,4.225,1.174,8.45,1.878,12.44.939,8.215,2.112,15.961,2.582,23,.235,3.521.7,7.042.939,10.328s.47,6.338.7,9.389c.469,5.868.7,11.032.939,15.257s.235,7.511.235,9.858a8.028,8.028,0,0,0,.235,2.582,11.429,11.429,0,0,0,1.643.7,6.583,6.583,0,0,0,1.174.235,4.106,4.106,0,0,0,1.174-.235,5.609,5.609,0,0,0,1.643-.7v-12.44c0-4.225,0-9.389-.235-15.257,0-3.051-.235-6.1-.235-9.389q-.352-4.929-.7-10.562c-.469-7.276-1.408-15.257-2.112-23.472-1.174-8.215-2.347-17.135-3.99-26.054-.7-4.46-1.878-9.154-2.817-13.614-.469-2.347-.939-4.694-1.643-7.042s-1.174-4.694-1.878-7.042-1.174-4.695-1.878-7.042l-2.112-7.042c-1.408-4.694-2.817-9.389-4.46-13.849-3.051-9.154-6.807-18.308-10.562-27.228-3.99-8.685-7.981-17.369-12.44-25.35a261.628,261.628,0,0,0-13.849-22.533c-4.694-7.042-9.624-13.379-14.083-19.013a216.524,216.524,0,0,0-24.411-25.35A86.107,86.107,0,0,0,243,268.9Z" transform="translate(-204.398 -237.574)"/><path class="b" d="M271.536,327.252s3.051-7.511-9.624-25.819c-12.675-18.543-19.717-47.883-6.572-45.771C268.484,257.54,278.812,310.822,271.536,327.252Z" transform="translate(-197.256 -255.554)"/><path class="b" d="M273.16,344.531a221.977,221.977,0,0,0-3.051-40.372c-4.225-24.411-7.981-36.147,4.46-30.044S283.253,330.917,273.16,344.531Z" transform="translate(-173.296 -232.695)"/><path class="b" d="M284.169,295.469s-31.453-40.842-53.282-30.749C209.058,275.048,276.423,286.315,284.169,295.469Z" transform="translate(-226.554 -245.365)"/><path class="b" d="M302.234,307s-52.812-43.658-67.6-25.585C219.378,299.49,297.305,299.02,302.234,307Z" transform="translate(-218.331 -226.618)"/><path class="b" d="M306.04,312.405s-54.456-32.626-61.732-13.145C236.327,320.855,298.059,301.843,306.04,312.405Z" transform="translate(-203.593 -205.029)"/><path class="b" d="M277.832,366.87s-.939-65.018,4.929-75.111C288.864,281.666,300.6,309.832,277.832,366.87Z" transform="translate(-157.547 -209.498)"/><path class="b" d="M305.806,323.845s-44.6-25.585-53.986-21.829S257.453,330.887,305.806,323.845Z" transform="translate(-196.083 -193.467)"/><path class="b" d="M316.689,373.227s-40.372-35.912-50-34.5S268.571,368.533,316.689,373.227Z" transform="translate(-176.688 -143.561)"/><path class="b" d="M309.224,395.96s-24.176-42.954-33.565-40.607C266.27,357.466,266.5,392.674,309.224,395.96Z" transform="translate(-167.11 -121.228)"/><path class="b" d="M287.9,428.28s16.43-77.928,27.228-86.143C326.16,333.687,333.906,374.529,287.9,428.28Z" transform="translate(-143.908 -140.403)"/><path class="b" d="M284.1,395.164s3.521-74.172,14.318-82.622C309.215,304.326,326.35,342.351,284.1,395.164Z" transform="translate(-149.027 -180.285)"/><path class="b" d="M308.714,351.8s-32.157-43.424-47.648-27.228C247.217,338.895,308.714,351.8,308.714,351.8Z" transform="translate(-182.796 -167.44)"/></g></g><path class="c" d="M118.938,322.264v12.871l502.1,4.823v-19.31Z" transform="translate(-78.861 126.577)"/><path class="d" d="M118.938,321.79H258.515v14.025l-139.577-1.153Z" transform="translate(-78.861 127.051)"/><path class="e" d="M417.424,339.191l4.332-18.543h36.417l-4.47,18.543Z" transform="translate(44.918 126.577)"/><path class="e" d="M448.586,339.615l5.931-18.966,4.384.034-6.447,18.932Z" transform="translate(57.84 126.577)"/><g transform="translate(472.507 419.011)"><rect class="f" width="1.416" height="13.253" transform="matrix(0.496, -0.868, 0.868, 0.496, 0, 1.23)"/></g><g transform="translate(60.03 153.688)"><path class="g" d="M137.1,367.873l-26.33-249.418,337.614-5.3L474.561,363.41Z" transform="translate(-100.953 -113.156)"/><path class="h" d="M113.645,116.9,103.83,127.15l27.36,240.033,8.785-.864Z" transform="translate(-103.83 -111.602)"/><path class="i" d="M469.419,290.052,458.3,292.658,123.169,295.38l8.785-.864Z" transform="translate(-95.81 -39.798)"/><path class="j" d="M146.609,348.484,120.331,126.833l313.358-2.344,23.359,221.469Z" transform="translate(-96.987 -108.456)"/><path class="k" d="M120.521,128.416l311.043-2.281,22.5,217.186-307.592,3.988Z" transform="translate(-96.908 -107.773)"/><g transform="translate(140.953 253.97)"><path class="i" d="M216.475,293.042l-13.01,33.071H216.72l12.888-33.172Z" transform="translate(-203.465 -292.57)"/><path class="l" d="M225.722,293.049l48.135-.37-10.531,33.542H212.835Z" transform="translate(-199.58 -292.679)"/><path class="i" d="M220.29,299.813l49.657-4.21.819-2.925-48.135.37Z" transform="translate(-196.488 -292.679)"/></g><path class="m" d="M317.844,326.292v-9.9H217.287V325.1Z" transform="translate(-56.78 -28.877)"/><rect class="i" width="20.369" height="8.712" transform="translate(140.137 287.512)"/><path class="n" d="M123.8,117.08l9.8,13.257,77.995-.583-4.5-13.981Z" transform="translate(-95.548 -112.07)"/><path class="o" d="M121.34,135.868l310.7-4.141L453.724,341l-307.534,4.481Z" transform="translate(-96.568 -105.454)"/><path class="p" d="M121.34,135.868l1.868,15.76,310.451-4.309-1.615-15.592Z" transform="translate(-96.568 -105.454)"/><path class="q" d="M150.512,282.317l-1.442-14.71,284.717-2.5v13.863Z" transform="translate(-85.069 -50.144)"/><path class="r" d="M133.366,144.024l-.818-5.182,108.371-2.011.936,5.458Z" transform="translate(-91.921 -103.338)"/><path class="s" d="M3.282,44.143,0,0H43.553l1.714,44.143Z" transform="matrix(1, -0.017, 0.017, 1, 179.695, 61.325)"/><path class="s" d="M3.282,44.143,0,0H43.553l1.714,44.143Z" transform="matrix(1, -0.017, 0.017, 1, 185.642, 110.679)"/><path class="s" d="M3.282,44.143,0,0H43.553l1.714,44.143Z" transform="matrix(1, -0.017, 0.017, 1, 191.316, 160.038)"/><path class="s" d="M3.282,44.143,0,0H43.553l1.714,44.143Z" transform="matrix(1, -0.017, 0.017, 1, 228.99, 60.464)"/><path class="s" d="M3.282,44.143,0,0H43.553l1.714,44.143Z" transform="matrix(1, -0.017, 0.017, 1, 234.868, 109.82)"/><path class="s" d="M3.282,44.143,0,0H43.553l1.714,44.143Z" transform="matrix(1, -0.017, 0.017, 1, 240.477, 159.18)"/><path class="s" d="M3.282,44.143,0,0H43.553l1.714,44.143Z" transform="matrix(1, -0.017, 0.017, 1, 280.675, 59.562)"/><path class="s" d="M167.115,59.532H41.33L60.8,207.4l124.222-4.118Z" transform="translate(2.872 1.003)"/><path class="s" d="M3.282,44.143,0,0H43.553l1.714,44.143Z" transform="matrix(1, -0.017, 0.017, 1, 286.622, 108.917)"/><path class="s" d="M3.282,44.143,0,0H43.553l1.714,44.143Z" transform="matrix(1, -0.017, 0.017, 1, 292.297, 158.276)"/><path class="t" d="M135.787,151.873l1.194,10.7h18.406l-.81-10.881Z" transform="translate(-83.237 -87.008)"/><path class="u" d="M1.222,13.966,0,0H53.507V13.966Z" transform="matrix(1, -0.017, 0.017, 1, 127.189, 187.602)"/><path class="u" d="M1.222,13.966,0,0H53.507V13.966Z" transform="matrix(1, -0.017, 0.017, 1, 68.015, 188.449)"/></g><g transform="translate(60.03 396.82)"><path class="t" d="M191.792,285.018h5.693s59.771,4.548,88.046,27.852L283.884,336.3l-1.863.009Z" transform="translate(-108.679 -285.018)"/><path class="p" d="M139.847,335.79l-6.8-48.094s53.277,5.084,92.557,23.134l-1.532,24.708Z" transform="translate(-133.042 -283.907)"/><path class="v" d="M133.042,288.807l83.113-3.789s58.35,3.936,90.229,27.852l-80.785-.929S179.25,294.614,133.042,288.807Z" transform="translate(-133.042 -285.018)"/><path class="w" d="M279.7,304.979v23.436l-82.316.341,1.531-24.708Z" transform="translate(-106.359 -277.126)"/><path class="t" d="M133.042,287.818l9.108-.416s51,9.167,83.45,23.55l-1.532,24.708-1.565.007.542-24.879S185.876,294.73,133.042,287.818Z" transform="translate(-133.042 -284.029)"/><path class="o" d="M144.37,288.6l38.136,6.912,71.59-2.02a203.484,203.484,0,0,0-41.913-7.969Z" transform="translate(-128.344 -284.809)"/><g transform="translate(65.329 9.94)"><g transform="translate(0 2.532)"><path class="x" d="M203.723,297.835l-12.49-.045a14.161,14.161,0,0,1-3.8-.723l-7.252-2.521c-1.14-.4-1.287-.714-.33-.712l12.49.045a14.184,14.184,0,0,1,3.8.724l7.252,2.52C204.534,297.521,204.681,297.839,203.723,297.835Z" transform="translate(-179.221 -293.834)"/><path class="x" d="M220.224,297.964l-12.49-.045a14.185,14.185,0,0,1-3.8-.724l-7.252-2.521c-1.139-.4-1.287-.714-.328-.71l12.49.045a14.16,14.16,0,0,1,3.8.723l7.252,2.521C221.035,297.648,221.182,297.967,220.224,297.964Z" transform="translate(-172.378 -293.78)"/><path class="x" d="M235.865,298.073l-12.49-.045a14.183,14.183,0,0,1-3.8-.723l-7.252-2.521c-1.14-.4-1.287-.714-.33-.712l12.49.045a14.159,14.159,0,0,1,3.8.723l7.252,2.521C236.676,297.757,236.823,298.077,235.865,298.073Z" transform="translate(-165.892 -293.735)"/><path class="x" d="M213.5,301.233l-12.49-.044a14.241,14.241,0,0,1-3.8-.724l-7.252-2.521c-1.14-.4-1.287-.714-.33-.71l12.49.044a14.225,14.225,0,0,1,3.8.724l7.252,2.521C214.312,300.919,214.459,301.238,213.5,301.233Z" transform="translate(-175.166 -292.424)"/><path class="x" d="M230,301.363l-12.49-.045a14.18,14.18,0,0,1-3.8-.723l-7.25-2.521c-1.14-.4-1.287-.714-.33-.712l12.49.045a14.181,14.181,0,0,1,3.8.723l7.252,2.521C230.813,301.047,230.961,301.366,230,301.363Z" transform="translate(-168.323 -292.371)"/><path class="x" d="M245.643,301.472l-12.49-.045a14.18,14.18,0,0,1-3.8-.723l-7.252-2.521c-1.139-.4-1.286-.714-.328-.712l12.49.045a14.243,14.243,0,0,1,3.8.724l7.252,2.521C246.454,301.158,246.6,301.476,245.643,301.472Z" transform="translate(-161.837 -292.326)"/><path class="y" d="M223.279,304.634l-12.49-.045a14.245,14.245,0,0,1-3.8-.724l-7.252-2.521c-1.139-.4-1.286-.714-.328-.71l12.49.045a14.178,14.178,0,0,1,3.8.723l7.252,2.521C224.09,304.318,224.237,304.637,223.279,304.634Z" transform="translate(-171.111 -291.015)"/><path class="x" d="M239.781,304.762l-12.49-.045a14.159,14.159,0,0,1-3.8-.723l-7.252-2.521c-1.14-.4-1.287-.714-.33-.712l12.49.045a14.184,14.184,0,0,1,3.8.724l7.252,2.52C240.592,304.448,240.739,304.766,239.781,304.762Z" transform="translate(-164.268 -290.961)"/><path class="x" d="M255.421,304.872l-12.49-.045a14.22,14.22,0,0,1-3.8-.724l-7.252-2.521c-1.14-.4-1.287-.714-.33-.71l12.49.044a14.24,14.24,0,0,1,3.8.724l7.252,2.521C256.232,304.556,256.38,304.875,255.421,304.872Z" transform="translate(-157.782 -290.916)"/></g><g transform="translate(0 2.412)"><path class="x" d="M203.723,297.75l-12.49-.045a14.163,14.163,0,0,1-3.8-.723l-7.252-2.521c-1.14-.4-1.287-.714-.33-.712l12.49.045a14.179,14.179,0,0,1,3.8.723l7.252,2.521C204.534,297.434,204.681,297.753,203.723,297.75Z" transform="translate(-179.221 -293.749)"/><path class="x" d="M220.224,297.877l-12.49-.044a14.246,14.246,0,0,1-3.8-.724l-7.252-2.521c-1.139-.4-1.287-.714-.328-.71l12.49.044a14.224,14.224,0,0,1,3.8.724l7.252,2.521C221.035,297.563,221.182,297.882,220.224,297.877Z" transform="translate(-172.378 -293.696)"/><path class="x" d="M235.865,297.988l-12.49-.045a14.18,14.18,0,0,1-3.8-.723l-7.252-2.521c-1.14-.4-1.287-.716-.33-.712l12.49.045a14.161,14.161,0,0,1,3.8.723l7.252,2.521C236.676,297.672,236.823,297.991,235.865,297.988Z" transform="translate(-165.892 -293.65)"/><path class="x" d="M213.5,301.149l-12.49-.045a14.183,14.183,0,0,1-3.8-.723l-7.252-2.521c-1.14-.4-1.287-.714-.33-.712l12.49.045a14.168,14.168,0,0,1,3.8.724l7.252,2.521C214.312,300.835,214.459,301.153,213.5,301.149Z" transform="translate(-175.166 -292.339)"/><path class="x" d="M230,301.278l-12.49-.045a14.241,14.241,0,0,1-3.8-.724l-7.25-2.521c-1.14-.4-1.287-.714-.33-.71l12.49.045a14.179,14.179,0,0,1,3.8.723l7.252,2.521C230.813,300.962,230.961,301.281,230,301.278Z" transform="translate(-168.323 -292.286)"/><path class="x" d="M245.643,301.387l-12.49-.045a14.179,14.179,0,0,1-3.8-.723L222.1,298.1c-1.139-.4-1.286-.714-.328-.712l12.49.045a14.181,14.181,0,0,1,3.8.723l7.252,2.521C246.454,301.071,246.6,301.391,245.643,301.387Z" transform="translate(-161.837 -292.241)"/><path class="y" d="M223.279,304.548l-12.49-.044a14.241,14.241,0,0,1-3.8-.724l-7.252-2.521c-1.139-.4-1.286-.714-.328-.712l12.49.045a14.241,14.241,0,0,1,3.8.724l7.252,2.521C224.09,304.234,224.237,304.552,223.279,304.548Z" transform="translate(-171.111 -290.93)"/><path class="x" d="M239.781,304.677l-12.49-.045a14.162,14.162,0,0,1-3.8-.723l-7.252-2.521c-1.14-.4-1.287-.714-.33-.712l12.49.045a14.18,14.18,0,0,1,3.8.723l7.252,2.521C240.592,304.361,240.739,304.68,239.781,304.677Z" transform="translate(-164.268 -290.876)"/><path class="x" d="M255.421,304.786l-12.49-.044a14.222,14.222,0,0,1-3.8-.724l-7.252-2.521c-1.14-.4-1.287-.714-.33-.712l12.49.045a14.245,14.245,0,0,1,3.8.724l7.252,2.521C256.232,304.472,256.38,304.79,255.421,304.786Z" transform="translate(-157.782 -290.831)"/></g><g transform="translate(0 2.292)"><path class="x" d="M203.723,297.665l-12.49-.045a14.168,14.168,0,0,1-3.8-.724l-7.252-2.521c-1.14-.4-1.287-.714-.33-.71l12.49.045a14.181,14.181,0,0,1,3.8.723l7.252,2.521C204.534,297.349,204.681,297.668,203.723,297.665Z" transform="translate(-179.221 -293.664)"/><path class="x" d="M220.224,297.793l-12.49-.045a14.186,14.186,0,0,1-3.8-.723l-7.252-2.521c-1.139-.4-1.287-.714-.328-.712l12.49.045a14.242,14.242,0,0,1,3.8.724l7.25,2.521C221.035,297.479,221.182,297.8,220.224,297.793Z" transform="translate(-172.378 -293.611)"/><path class="x" d="M235.865,297.9l-12.49-.045a14.244,14.244,0,0,1-3.8-.724l-7.252-2.521c-1.14-.4-1.287-.714-.33-.71l12.49.044a14.22,14.22,0,0,1,3.8.724l7.252,2.521C236.676,297.587,236.823,297.906,235.865,297.9Z" transform="translate(-165.892 -293.565)"/><path class="x" d="M213.5,301.064l-12.49-.045a14.181,14.181,0,0,1-3.8-.723l-7.252-2.521c-1.14-.4-1.287-.714-.33-.712l12.49.045a14.16,14.16,0,0,1,3.8.723l7.252,2.521C214.312,300.748,214.459,301.067,213.5,301.064Z" transform="translate(-175.166 -292.254)"/><path class="x" d="M230,301.193l-12.49-.045a14.224,14.224,0,0,1-3.8-.724l-7.252-2.521c-1.14-.4-1.287-.714-.33-.71l12.49.044a14.243,14.243,0,0,1,3.8.724l7.252,2.521C230.813,300.877,230.961,301.2,230,301.193Z" transform="translate(-168.323 -292.201)"/><path class="x" d="M245.643,301.3l-12.49-.045a14.179,14.179,0,0,1-3.8-.723l-7.252-2.521c-1.139-.4-1.286-.716-.328-.712l12.49.045a14.179,14.179,0,0,1,3.8.723l7.252,2.521C246.454,300.986,246.6,301.3,245.643,301.3Z" transform="translate(-161.837 -292.156)"/><path class="y" d="M223.279,304.463l-12.49-.045a14.18,14.18,0,0,1-3.8-.723l-7.252-2.521c-1.139-.4-1.286-.714-.328-.712l12.49.045a14.248,14.248,0,0,1,3.8.724l7.252,2.521C224.09,304.149,224.237,304.467,223.279,304.463Z" transform="translate(-171.111 -290.845)"/><path class="x" d="M239.781,304.592l-12.49-.045a14.109,14.109,0,0,1-3.8-.724l-7.252-2.521c-1.14-.4-1.287-.714-.33-.71l12.49.045a14.181,14.181,0,0,1,3.8.723l7.252,2.521C240.592,304.276,240.739,304.595,239.781,304.592Z" transform="translate(-164.268 -290.791)"/><path class="x" d="M255.421,304.7l-12.49-.045a14.16,14.16,0,0,1-3.8-.723l-7.252-2.521c-1.14-.4-1.287-.714-.33-.712l12.49.045a14.131,14.131,0,0,1,3.8.724l7.252,2.52C256.232,304.387,256.38,304.705,255.421,304.7Z" transform="translate(-157.782 -290.746)"/></g><g transform="translate(0 2.17)"><path class="x" d="M203.723,297.579l-12.49-.044a14.222,14.222,0,0,1-3.8-.724l-7.252-2.521c-1.14-.4-1.287-.714-.33-.712l12.49.045a14.241,14.241,0,0,1,3.8.724l7.252,2.521C204.534,297.265,204.681,297.583,203.723,297.579Z" transform="translate(-179.221 -293.578)"/><path class="x" d="M220.224,297.708l-12.49-.045a14.18,14.18,0,0,1-3.8-.723l-7.252-2.521c-1.139-.4-1.287-.714-.328-.712l12.49.045a14.18,14.18,0,0,1,3.8.723l7.25,2.521C221.035,297.392,221.182,297.711,220.224,297.708Z" transform="translate(-172.378 -293.524)"/><path class="x" d="M235.865,297.817l-12.49-.044a14.241,14.241,0,0,1-3.8-.724l-7.252-2.521c-1.14-.4-1.287-.714-.33-.712l12.49.045a14.221,14.221,0,0,1,3.8.724l7.252,2.521C236.676,297.5,236.823,297.821,235.865,297.817Z" transform="translate(-165.892 -293.479)"/><path class="x" d="M213.5,300.979l-12.49-.045a14.24,14.24,0,0,1-3.8-.724l-7.252-2.521c-1.14-.4-1.287-.714-.33-.71l12.49.045a14.16,14.16,0,0,1,3.8.723l7.252,2.521C214.312,300.663,214.459,300.982,213.5,300.979Z" transform="translate(-175.166 -292.168)"/><path class="x" d="M230,301.107l-12.49-.045a14.165,14.165,0,0,1-3.8-.723l-7.252-2.521c-1.14-.4-1.287-.714-.33-.712l12.49.045a14.239,14.239,0,0,1,3.8.724l7.252,2.521C230.813,300.793,230.961,301.111,230,301.107Z" transform="translate(-168.323 -292.115)"/><path class="x" d="M245.643,301.217l-12.49-.045a14.243,14.243,0,0,1-3.8-.724l-7.252-2.521c-1.139-.4-1.286-.714-.328-.71l12.49.044a14.242,14.242,0,0,1,3.8.724l7.252,2.521C246.454,300.9,246.6,301.22,245.643,301.217Z" transform="translate(-161.837 -292.069)"/><path class="y" d="M223.279,304.378l-12.49-.045a14.18,14.18,0,0,1-3.8-.723l-7.252-2.521c-1.139-.4-1.286-.714-.328-.712l12.49.045a14.18,14.18,0,0,1,3.8.723l7.252,2.521C224.09,304.062,224.237,304.381,223.279,304.378Z" transform="translate(-171.111 -290.758)"/><path class="x" d="M239.781,304.505l-12.49-.044a14.222,14.222,0,0,1-3.8-.724l-7.252-2.521c-1.14-.4-1.287-.714-.33-.71l12.49.044a14.243,14.243,0,0,1,3.8.724l7.252,2.521C240.592,304.191,240.739,304.51,239.781,304.505Z" transform="translate(-164.268 -290.705)"/><path class="x" d="M255.421,304.616l-12.49-.045a14.161,14.161,0,0,1-3.8-.723l-7.252-2.521c-1.14-.4-1.287-.716-.33-.712l12.49.045a14.182,14.182,0,0,1,3.8.723l7.252,2.521C256.232,304.3,256.38,304.619,255.421,304.616Z" transform="translate(-157.782 -290.66)"/></g><g transform="translate(0 2.05)"><path class="x" d="M203.723,297.494l-12.49-.045a14.162,14.162,0,0,1-3.8-.723l-7.252-2.521c-1.14-.4-1.287-.714-.33-.712l12.49.045a14.242,14.242,0,0,1,3.8.724l7.252,2.521C204.534,297.18,204.681,297.5,203.723,297.494Z" transform="translate(-179.221 -293.493)"/><path class="x" d="M220.224,297.623l-12.49-.045a14.132,14.132,0,0,1-3.8-.724l-7.252-2.521c-1.139-.4-1.287-.714-.328-.71l12.49.045a14.181,14.181,0,0,1,3.8.723l7.25,2.521C221.035,297.307,221.182,297.626,220.224,297.623Z" transform="translate(-172.378 -293.439)"/><path class="x" d="M235.865,297.732l-12.49-.045a14.182,14.182,0,0,1-3.8-.723l-7.252-2.521c-1.14-.4-1.287-.714-.33-.712l12.49.045a14.11,14.11,0,0,1,3.8.724l7.252,2.52C236.676,297.418,236.823,297.736,235.865,297.732Z" transform="translate(-165.892 -293.394)"/><path class="x" d="M213.5,300.894l-12.49-.045a14.241,14.241,0,0,1-3.8-.724l-7.252-2.521c-1.14-.4-1.287-.714-.33-.71l12.49.044a14.223,14.223,0,0,1,3.8.724l7.252,2.521C214.312,300.578,214.459,300.9,213.5,300.894Z" transform="translate(-175.166 -292.083)"/><path class="x" d="M230,301.022l-12.49-.045a14.159,14.159,0,0,1-3.8-.723l-7.252-2.521c-1.14-.4-1.287-.714-.33-.712l12.49.045a14.179,14.179,0,0,1,3.8.723l7.252,2.521C230.813,300.706,230.961,301.025,230,301.022Z" transform="translate(-168.323 -292.03)"/><path class="x" d="M245.643,301.131l-12.49-.044a14.241,14.241,0,0,1-3.8-.724l-7.252-2.521c-1.139-.4-1.286-.714-.328-.712l12.49.045a14.242,14.242,0,0,1,3.8.724l7.252,2.521C246.454,300.817,246.6,301.135,245.643,301.131Z" transform="translate(-161.837 -291.985)"/><path class="y" d="M223.279,304.293l-12.49-.045a14.187,14.187,0,0,1-3.8-.724L199.739,301c-1.139-.4-1.286-.714-.328-.71l12.49.045a14.18,14.18,0,0,1,3.8.723l7.252,2.521C224.09,303.977,224.237,304.3,223.279,304.293Z" transform="translate(-171.111 -290.674)"/><path class="x" d="M239.781,304.421l-12.49-.045a14.162,14.162,0,0,1-3.8-.723l-7.252-2.521c-1.14-.4-1.287-.714-.33-.712l12.49.045a14.241,14.241,0,0,1,3.8.724l7.252,2.521C240.592,304.107,240.739,304.425,239.781,304.421Z" transform="translate(-164.268 -290.62)"/><path class="x" d="M255.421,304.531l-12.49-.045a14.222,14.222,0,0,1-3.8-.724l-7.252-2.521c-1.14-.4-1.287-.714-.33-.71l12.49.044a14.238,14.238,0,0,1,3.8.724l7.252,2.521C256.232,304.215,256.38,304.534,255.421,304.531Z" transform="translate(-157.782 -290.575)"/></g><g transform="translate(0 1.93)"><path class="x" d="M203.723,297.409l-12.49-.045a14.161,14.161,0,0,1-3.8-.723l-7.252-2.521c-1.14-.4-1.287-.714-.33-.712l12.49.045a14.177,14.177,0,0,1,3.8.723l7.252,2.521C204.534,297.093,204.681,297.412,203.723,297.409Z" transform="translate(-179.221 -293.408)"/><path class="x" d="M220.224,297.536l-12.49-.044a14.248,14.248,0,0,1-3.8-.724l-7.252-2.521c-1.139-.4-1.287-.714-.328-.71l12.49.044a14.246,14.246,0,0,1,3.8.724l7.25,2.521C221.035,297.222,221.182,297.541,220.224,297.536Z" transform="translate(-172.378 -293.355)"/><path class="x" d="M235.865,297.647l-12.49-.045a14.18,14.18,0,0,1-3.8-.723l-7.252-2.521c-1.14-.4-1.287-.716-.33-.712l12.49.045a14.16,14.16,0,0,1,3.8.723l7.252,2.521C236.676,297.331,236.823,297.65,235.865,297.647Z" transform="translate(-165.892 -293.309)"/><path class="x" d="M213.5,300.808l-12.49-.045a14.179,14.179,0,0,1-3.8-.723l-7.252-2.521c-1.14-.4-1.287-.714-.33-.712l12.49.045a14.168,14.168,0,0,1,3.8.724l7.252,2.521C214.312,300.494,214.459,300.812,213.5,300.808Z" transform="translate(-175.166 -291.998)"/><path class="x" d="M230,300.937l-12.49-.045a14.222,14.222,0,0,1-3.8-.724l-7.252-2.521c-1.14-.4-1.287-.714-.33-.71l12.49.045a14.182,14.182,0,0,1,3.8.723l7.252,2.521C230.813,300.621,230.961,300.94,230,300.937Z" transform="translate(-168.323 -291.945)"/><path class="x" d="M245.643,301.046,233.153,301a14.182,14.182,0,0,1-3.8-.723l-7.252-2.521c-1.139-.4-1.286-.714-.328-.712l12.49.045a14.183,14.183,0,0,1,3.8.723l7.252,2.521C246.454,300.73,246.6,301.05,245.643,301.046Z" transform="translate(-161.837 -291.9)"/><path class="y" d="M223.279,304.207l-12.49-.044a14.243,14.243,0,0,1-3.8-.724l-7.252-2.521c-1.139-.4-1.286-.714-.328-.712l12.49.045a14.245,14.245,0,0,1,3.8.724l7.252,2.521C224.09,303.893,224.237,304.211,223.279,304.207Z" transform="translate(-171.111 -290.589)"/><path class="x" d="M239.781,304.336l-12.49-.045a14.162,14.162,0,0,1-3.8-.723l-7.252-2.521c-1.14-.4-1.287-.714-.33-.712l12.49.045a14.179,14.179,0,0,1,3.8.723l7.252,2.521C240.592,304.02,240.739,304.339,239.781,304.336Z" transform="translate(-164.268 -290.535)"/><path class="x" d="M255.421,304.445l-12.49-.044a14.22,14.22,0,0,1-3.8-.724l-7.252-2.521c-1.14-.4-1.287-.714-.33-.712l12.49.045a14.243,14.243,0,0,1,3.8.724l7.252,2.521C256.232,304.131,256.38,304.449,255.421,304.445Z" transform="translate(-157.782 -290.49)"/></g><g transform="translate(0 1.809)"><path class="x" d="M203.723,297.324l-12.49-.045a14.164,14.164,0,0,1-3.8-.724l-7.252-2.521c-1.14-.4-1.287-.714-.33-.71l12.49.045a14.179,14.179,0,0,1,3.8.723l7.252,2.521C204.534,297.008,204.681,297.327,203.723,297.324Z" transform="translate(-179.221 -293.323)"/><path class="x" d="M220.224,297.452l-12.49-.045a14.18,14.18,0,0,1-3.8-.723l-7.252-2.521c-1.139-.4-1.287-.714-.328-.712l12.49.045a14.24,14.24,0,0,1,3.8.724l7.25,2.521C221.035,297.138,221.182,297.456,220.224,297.452Z" transform="translate(-172.378 -293.27)"/><path class="x" d="M235.865,297.562l-12.49-.045a14.239,14.239,0,0,1-3.8-.724l-7.252-2.521c-1.14-.4-1.287-.714-.33-.71l12.49.044a14.221,14.221,0,0,1,3.8.724l7.252,2.521C236.676,297.246,236.823,297.565,235.865,297.562Z" transform="translate(-165.892 -293.224)"/><path class="x" d="M213.5,300.723l-12.49-.045a14.179,14.179,0,0,1-3.8-.723l-7.252-2.521c-1.14-.4-1.287-.714-.33-.712l12.49.045a14.161,14.161,0,0,1,3.8.723l7.252,2.521C214.312,300.407,214.459,300.726,213.5,300.723Z" transform="translate(-175.166 -291.913)"/><path class="x" d="M230,300.852l-12.49-.045a14.223,14.223,0,0,1-3.8-.724l-7.252-2.521c-1.14-.4-1.287-.714-.33-.71l12.49.044a14.241,14.241,0,0,1,3.8.724l7.252,2.521C230.813,300.536,230.961,300.855,230,300.852Z" transform="translate(-168.323 -291.86)"/><path class="x" d="M245.643,300.961l-12.49-.045a14.182,14.182,0,0,1-3.8-.723l-7.252-2.521c-1.139-.4-1.286-.716-.328-.712l12.49.045a14.18,14.18,0,0,1,3.8.723l7.252,2.521C246.454,300.645,246.6,300.964,245.643,300.961Z" transform="translate(-161.837 -291.815)"/><path class="y" d="M223.279,304.122l-12.49-.045a14.176,14.176,0,0,1-3.8-.723l-7.252-2.521c-1.139-.4-1.286-.714-.328-.712l12.49.045a14.239,14.239,0,0,1,3.8.724l7.252,2.521C224.09,303.808,224.237,304.126,223.279,304.122Z" transform="translate(-171.111 -290.504)"/><path class="x" d="M239.781,304.251l-12.49-.045a14.11,14.11,0,0,1-3.8-.724l-7.252-2.521c-1.14-.4-1.287-.714-.33-.71l12.49.045a14.182,14.182,0,0,1,3.8.723l7.252,2.521C240.592,303.935,240.739,304.254,239.781,304.251Z" transform="translate(-164.268 -290.45)"/><path class="x" d="M255.421,304.36l-12.49-.045a14.162,14.162,0,0,1-3.8-.723l-7.252-2.521c-1.14-.4-1.287-.714-.33-.712l12.49.045a14.133,14.133,0,0,1,3.8.724l7.252,2.52C256.232,304.046,256.38,304.364,255.421,304.36Z" transform="translate(-157.782 -290.405)"/></g><g transform="translate(0 1.688)"><path class="x" d="M203.723,297.238l-12.49-.044a14.22,14.22,0,0,1-3.8-.724l-7.252-2.521c-1.14-.4-1.287-.714-.33-.712l12.49.045a14.242,14.242,0,0,1,3.8.724l7.252,2.521C204.534,296.924,204.681,297.242,203.723,297.238Z" transform="translate(-179.221 -293.237)"/><path class="x" d="M220.224,297.367l-12.49-.045a14.18,14.18,0,0,1-3.8-.723l-7.252-2.521c-1.139-.4-1.287-.714-.328-.712l12.49.045a14.18,14.18,0,0,1,3.8.723l7.25,2.521C221.035,297.051,221.182,297.37,220.224,297.367Z" transform="translate(-172.378 -293.183)"/><path class="x" d="M235.865,297.476l-12.49-.044a14.243,14.243,0,0,1-3.8-.724l-7.252-2.521c-1.14-.4-1.287-.714-.33-.712l12.49.045a14.223,14.223,0,0,1,3.8.724l7.252,2.521C236.676,297.162,236.823,297.48,235.865,297.476Z" transform="translate(-165.892 -293.138)"/><path class="x" d="M213.5,300.638l-12.49-.045a14.246,14.246,0,0,1-3.8-.724l-7.252-2.521c-1.14-.4-1.287-.714-.33-.71l12.49.045a14.159,14.159,0,0,1,3.8.723l7.252,2.521C214.312,300.322,214.459,300.641,213.5,300.638Z" transform="translate(-175.166 -291.827)"/><path class="x" d="M230,300.766l-12.49-.045a14.159,14.159,0,0,1-3.8-.723l-7.252-2.521c-1.14-.4-1.287-.714-.33-.712l12.49.045a14.24,14.24,0,0,1,3.8.724l7.252,2.521C230.813,300.452,230.961,300.77,230,300.766Z" transform="translate(-168.323 -291.774)"/><path class="x" d="M245.643,300.876l-12.49-.045a14.239,14.239,0,0,1-3.8-.724l-7.252-2.521c-1.139-.4-1.286-.714-.328-.71l12.49.044a14.242,14.242,0,0,1,3.8.724l7.252,2.521C246.454,300.56,246.6,300.879,245.643,300.876Z" transform="translate(-161.837 -291.728)"/><path class="y" d="M223.279,304.037l-12.49-.045a14.182,14.182,0,0,1-3.8-.723l-7.252-2.521c-1.139-.4-1.286-.714-.328-.712l12.49.045a14.181,14.181,0,0,1,3.8.723l7.252,2.521C224.09,303.721,224.237,304.04,223.279,304.037Z" transform="translate(-171.111 -290.417)"/><path class="x" d="M239.781,304.164l-12.49-.044a14.22,14.22,0,0,1-3.8-.724l-7.252-2.521c-1.14-.4-1.287-.714-.33-.71l12.49.044a14.239,14.239,0,0,1,3.8.724l7.252,2.521C240.592,303.85,240.739,304.169,239.781,304.164Z" transform="translate(-164.268 -290.364)"/><path class="x" d="M255.421,304.275l-12.49-.045a14.16,14.16,0,0,1-3.8-.723l-7.252-2.521c-1.14-.4-1.287-.716-.33-.712l12.49.045a14.183,14.183,0,0,1,3.8.723l7.252,2.521C256.232,303.959,256.38,304.278,255.421,304.275Z" transform="translate(-157.782 -290.319)"/></g><g transform="translate(0 1.567)"><path class="x" d="M203.723,297.153l-12.49-.045a14.161,14.161,0,0,1-3.8-.723l-7.252-2.521c-1.14-.4-1.287-.714-.33-.712l12.49.045a14.242,14.242,0,0,1,3.8.724l7.252,2.521C204.534,296.839,204.681,297.157,203.723,297.153Z" transform="translate(-179.221 -293.152)"/><path class="x" d="M220.224,297.282l-12.49-.045a14.132,14.132,0,0,1-3.8-.724l-7.252-2.521c-1.139-.4-1.287-.714-.328-.71l12.49.045a14.179,14.179,0,0,1,3.8.723l7.25,2.521C221.035,296.966,221.182,297.285,220.224,297.282Z" transform="translate(-172.378 -293.098)"/><path class="x" d="M235.865,297.391l-12.49-.045a14.18,14.18,0,0,1-3.8-.723l-7.252-2.521c-1.14-.4-1.287-.714-.33-.712l12.49.045a14.113,14.113,0,0,1,3.8.724l7.252,2.52C236.676,297.077,236.823,297.395,235.865,297.391Z" transform="translate(-165.892 -293.053)"/><path class="x" d="M213.5,300.553l-12.49-.045a14.239,14.239,0,0,1-3.8-.724l-7.252-2.521c-1.14-.4-1.287-.714-.33-.71l12.49.044a14.224,14.224,0,0,1,3.8.724l7.252,2.521C214.312,300.237,214.459,300.556,213.5,300.553Z" transform="translate(-175.166 -291.742)"/><path class="x" d="M230,300.681l-12.49-.045a14.164,14.164,0,0,1-3.8-.723l-7.252-2.521c-1.14-.4-1.287-.714-.33-.712l12.49.045a14.18,14.18,0,0,1,3.8.723l7.252,2.521C230.813,300.365,230.961,300.684,230,300.681Z" transform="translate(-168.323 -291.689)"/><path class="x" d="M245.643,300.79l-12.49-.044a14.242,14.242,0,0,1-3.8-.724L222.1,297.5c-1.139-.4-1.286-.714-.328-.712l12.49.045a14.24,14.24,0,0,1,3.8.724l7.252,2.521C246.454,300.476,246.6,300.794,245.643,300.79Z" transform="translate(-161.837 -291.644)"/><path class="y" d="M223.279,303.952l-12.49-.045a14.184,14.184,0,0,1-3.8-.724l-7.252-2.521c-1.139-.4-1.286-.715-.328-.71L211.9,300a14.18,14.18,0,0,1,3.8.723l7.252,2.521C224.09,303.636,224.237,303.955,223.279,303.952Z" transform="translate(-171.111 -290.333)"/><path class="x" d="M239.781,304.08l-12.49-.045a14.158,14.158,0,0,1-3.8-.723l-7.252-2.521c-1.14-.4-1.287-.714-.33-.712l12.49.045a14.242,14.242,0,0,1,3.8.724l7.252,2.521C240.592,303.766,240.739,304.084,239.781,304.08Z" transform="translate(-164.268 -290.279)"/><path class="x" d="M255.421,304.19l-12.49-.045a14.221,14.221,0,0,1-3.8-.724l-7.252-2.521c-1.14-.4-1.287-.714-.33-.71l12.49.044a14.241,14.241,0,0,1,3.8.724l7.252,2.521C256.232,303.874,256.38,304.193,255.421,304.19Z" transform="translate(-157.782 -290.234)"/></g><g transform="translate(0 1.447)"><path class="x" d="M203.723,297.068l-12.49-.045a14.16,14.16,0,0,1-3.8-.723l-7.252-2.521c-1.14-.4-1.287-.714-.33-.712l12.49.045a14.181,14.181,0,0,1,3.8.723l7.252,2.521C204.534,296.752,204.681,297.071,203.723,297.068Z" transform="translate(-179.221 -293.067)"/><path class="x" d="M220.224,297.2l-12.49-.045a14.241,14.241,0,0,1-3.8-.724l-7.252-2.521c-1.139-.4-1.287-.714-.328-.71l12.49.044a14.243,14.243,0,0,1,3.8.724l7.25,2.521C221.035,296.881,221.182,297.2,220.224,297.2Z" transform="translate(-172.378 -293.013)"/><path class="x" d="M235.865,297.306l-12.49-.045a14.181,14.181,0,0,1-3.8-.723l-7.252-2.521c-1.14-.4-1.287-.716-.33-.712l12.49.045a14.158,14.158,0,0,1,3.8.723l7.252,2.521C236.676,296.99,236.823,297.309,235.865,297.306Z" transform="translate(-165.892 -292.968)"/><path class="x" d="M213.5,300.467l-12.49-.045a14.18,14.18,0,0,1-3.8-.723l-7.252-2.521c-1.14-.4-1.287-.714-.33-.712l12.49.045a14.222,14.222,0,0,1,3.8.724l7.252,2.521C214.312,300.153,214.459,300.471,213.5,300.467Z" transform="translate(-175.166 -291.657)"/><path class="x" d="M230,300.6l-12.49-.045a14.166,14.166,0,0,1-3.8-.724l-7.252-2.521c-1.14-.4-1.287-.714-.33-.71l12.49.045a14.18,14.18,0,0,1,3.8.723l7.252,2.521C230.813,300.28,230.961,300.6,230,300.6Z" transform="translate(-168.323 -291.604)"/><path class="x" d="M245.643,300.7l-12.49-.045a14.181,14.181,0,0,1-3.8-.723l-7.252-2.521c-1.139-.4-1.286-.714-.328-.712l12.49.045a14.182,14.182,0,0,1,3.8.723l7.252,2.521C246.454,300.391,246.6,300.709,245.643,300.7Z" transform="translate(-161.837 -291.559)"/><path class="y" d="M223.279,303.865l-12.49-.044a14.242,14.242,0,0,1-3.8-.724l-7.252-2.521c-1.139-.4-1.286-.714-.328-.71l12.49.044a14.239,14.239,0,0,1,3.8.724l7.252,2.521C224.09,303.551,224.237,303.87,223.279,303.865Z" transform="translate(-171.111 -290.248)"/><path class="x" d="M239.781,303.995l-12.49-.045a14.164,14.164,0,0,1-3.8-.723l-7.252-2.521c-1.14-.4-1.287-.714-.33-.712l12.49.045a14.18,14.18,0,0,1,3.8.723l7.252,2.521C240.592,303.679,240.739,304,239.781,303.995Z" transform="translate(-164.268 -290.194)"/><path class="x" d="M255.421,304.1l-12.49-.044a14.223,14.223,0,0,1-3.8-.724l-7.252-2.521c-1.14-.4-1.287-.714-.33-.712l12.49.045a14.243,14.243,0,0,1,3.8.724l7.252,2.521C256.232,303.79,256.38,304.108,255.421,304.1Z" transform="translate(-157.782 -290.149)"/></g><g transform="translate(0 1.327)"><path class="x" d="M203.723,296.983l-12.49-.045a14.168,14.168,0,0,1-3.8-.724l-7.252-2.521c-1.14-.4-1.287-.714-.33-.71l12.49.045a14.179,14.179,0,0,1,3.8.723l7.252,2.521C204.534,296.667,204.681,296.986,203.723,296.983Z" transform="translate(-179.221 -292.982)"/><path class="x" d="M220.224,297.111l-12.49-.045a14.182,14.182,0,0,1-3.8-.723l-7.252-2.521c-1.139-.4-1.287-.714-.328-.712l12.49.045a14.242,14.242,0,0,1,3.8.724l7.25,2.521C221.035,296.8,221.182,297.115,220.224,297.111Z" transform="translate(-172.378 -292.929)"/><path class="x" d="M235.865,297.221l-12.49-.045a14.241,14.241,0,0,1-3.8-.724l-7.252-2.521c-1.14-.4-1.287-.714-.33-.71l12.49.044a14.222,14.222,0,0,1,3.8.724l7.252,2.521C236.676,296.905,236.823,297.224,235.865,297.221Z" transform="translate(-165.892 -292.883)"/><path class="x" d="M213.5,300.382l-12.49-.045a14.18,14.18,0,0,1-3.8-.723l-7.252-2.521c-1.14-.4-1.287-.714-.33-.712l12.49.045a14.163,14.163,0,0,1,3.8.723l7.252,2.521C214.312,300.066,214.459,300.385,213.5,300.382Z" transform="translate(-175.166 -291.572)"/><path class="x" d="M230,300.511l-12.49-.045a14.223,14.223,0,0,1-3.8-.724l-7.252-2.521c-1.14-.4-1.287-.714-.33-.71l12.49.044a14.243,14.243,0,0,1,3.8.724l7.252,2.521C230.813,300.2,230.961,300.514,230,300.511Z" transform="translate(-168.323 -291.519)"/><path class="x" d="M245.643,300.62l-12.49-.045a14.184,14.184,0,0,1-3.8-.723l-7.252-2.521c-1.139-.4-1.286-.716-.328-.712l12.49.045a14.181,14.181,0,0,1,3.8.723l7.252,2.521C246.454,300.3,246.6,300.623,245.643,300.62Z" transform="translate(-161.837 -291.474)"/><path class="y" d="M223.279,303.781l-12.49-.045a14.182,14.182,0,0,1-3.8-.723l-7.252-2.521c-1.139-.4-1.286-.714-.328-.712l12.49.045a14.243,14.243,0,0,1,3.8.724l7.252,2.521C224.09,303.467,224.237,303.785,223.279,303.781Z" transform="translate(-171.111 -290.163)"/><path class="x" d="M239.781,303.91l-12.49-.045a14.107,14.107,0,0,1-3.8-.724l-7.252-2.521c-1.14-.4-1.287-.714-.33-.71l12.49.045a14.18,14.18,0,0,1,3.8.723l7.252,2.521C240.592,303.594,240.739,303.913,239.781,303.91Z" transform="translate(-164.268 -290.109)"/><path class="x" d="M255.421,304.019l-12.49-.045a14.159,14.159,0,0,1-3.8-.723l-7.252-2.521c-1.14-.4-1.287-.714-.33-.712l12.49.045a14.13,14.13,0,0,1,3.8.724l7.252,2.52C256.232,303.7,256.38,304.023,255.421,304.019Z" transform="translate(-157.782 -290.064)"/></g><g transform="translate(0 1.207)"><path class="x" d="M203.723,296.9l-12.49-.044a14.219,14.219,0,0,1-3.8-.724l-7.252-2.521c-1.14-.4-1.287-.714-.33-.71l12.49.044a14.241,14.241,0,0,1,3.8.724l7.252,2.521C204.534,296.582,204.681,296.9,203.723,296.9Z" transform="translate(-179.221 -292.897)"/><path class="x" d="M220.224,297.026l-12.49-.045a14.179,14.179,0,0,1-3.8-.723l-7.252-2.521c-1.139-.4-1.287-.714-.328-.712l12.49.045a14.184,14.184,0,0,1,3.8.723l7.25,2.521C221.035,296.71,221.182,297.029,220.224,297.026Z" transform="translate(-172.378 -292.844)"/><path class="x" d="M235.865,297.135l-12.49-.044a14.239,14.239,0,0,1-3.8-.724l-7.252-2.521c-1.14-.4-1.287-.714-.33-.712l12.49.045a14.223,14.223,0,0,1,3.8.724l7.252,2.521C236.676,296.821,236.823,297.139,235.865,297.135Z" transform="translate(-165.892 -292.799)"/><path class="x" d="M213.5,300.3l-12.49-.045a14.245,14.245,0,0,1-3.8-.724l-7.252-2.521c-1.14-.4-1.287-.714-.33-.71l12.49.045a14.156,14.156,0,0,1,3.8.723l7.252,2.521C214.312,299.981,214.459,300.3,213.5,300.3Z" transform="translate(-175.166 -291.488)"/><path class="x" d="M230,300.425l-12.49-.045a14.161,14.161,0,0,1-3.8-.723l-7.252-2.521c-1.14-.4-1.287-.714-.33-.711l12.49.045a14.244,14.244,0,0,1,3.8.724l7.252,2.521C230.813,300.111,230.961,300.429,230,300.425Z" transform="translate(-168.323 -291.434)"/><path class="x" d="M245.643,300.535l-12.49-.045a14.241,14.241,0,0,1-3.8-.724l-7.252-2.521c-1.139-.4-1.286-.714-.328-.71l12.49.044a14.242,14.242,0,0,1,3.8.724l7.252,2.521C246.454,300.219,246.6,300.538,245.643,300.535Z" transform="translate(-161.837 -291.389)"/><path class="y" d="M223.279,303.7l-12.49-.045a14.179,14.179,0,0,1-3.8-.723l-7.252-2.521c-1.139-.4-1.286-.714-.328-.712l12.49.045a14.183,14.183,0,0,1,3.8.723l7.252,2.521C224.09,303.38,224.237,303.7,223.279,303.7Z" transform="translate(-171.111 -290.078)"/><path class="x" d="M239.781,303.825l-12.49-.045a14.222,14.222,0,0,1-3.8-.724l-7.252-2.521c-1.14-.4-1.287-.714-.33-.71l12.49.044a14.24,14.24,0,0,1,3.8.724l7.252,2.521C240.592,303.509,240.739,303.828,239.781,303.825Z" transform="translate(-164.268 -290.024)"/><path class="x" d="M255.421,303.934l-12.49-.045a14.164,14.164,0,0,1-3.8-.723l-7.252-2.521c-1.14-.4-1.287-.716-.33-.711l12.49.045a14.184,14.184,0,0,1,3.8.723l7.252,2.521C256.232,303.618,256.38,303.937,255.421,303.934Z" transform="translate(-157.782 -289.979)"/></g><g transform="translate(0 1.085)"><path class="x" d="M203.723,296.812l-12.49-.045a14.16,14.16,0,0,1-3.8-.723l-7.252-2.521c-1.14-.4-1.287-.714-.33-.712l12.49.045a14.245,14.245,0,0,1,3.8.724l7.252,2.521C204.534,296.5,204.681,296.816,203.723,296.812Z" transform="translate(-179.221 -292.811)"/><path class="x" d="M220.224,296.941l-12.49-.045a14.132,14.132,0,0,1-3.8-.724l-7.252-2.521c-1.139-.4-1.287-.714-.328-.71l12.49.045a14.18,14.18,0,0,1,3.8.723l7.25,2.521C221.035,296.625,221.182,296.944,220.224,296.941Z" transform="translate(-172.378 -292.758)"/><path class="x" d="M235.865,297.05,223.375,297a14.181,14.181,0,0,1-3.8-.723l-7.252-2.521c-1.14-.4-1.287-.714-.33-.711l12.49.045a14.112,14.112,0,0,1,3.8.724l7.252,2.52C236.676,296.736,236.823,297.054,235.865,297.05Z" transform="translate(-165.892 -292.712)"/><path class="x" d="M213.5,300.212l-12.49-.045a14.241,14.241,0,0,1-3.8-.724l-7.252-2.521c-1.14-.4-1.287-.714-.33-.71l12.49.044a14.224,14.224,0,0,1,3.8.724l7.252,2.521C214.312,299.9,214.459,300.215,213.5,300.212Z" transform="translate(-175.166 -291.401)"/><path class="x" d="M230,300.34l-12.49-.045a14.16,14.16,0,0,1-3.8-.723l-7.252-2.521c-1.14-.4-1.287-.714-.33-.712l12.49.045a14.179,14.179,0,0,1,3.8.723l7.252,2.521C230.813,300.024,230.961,300.343,230,300.34Z" transform="translate(-168.323 -291.348)"/><path class="x" d="M245.643,300.449l-12.49-.044a14.24,14.24,0,0,1-3.8-.724L222.1,297.16c-1.139-.4-1.286-.714-.328-.712l12.49.045a14.243,14.243,0,0,1,3.8.724l7.252,2.521C246.454,300.135,246.6,300.453,245.643,300.449Z" transform="translate(-161.837 -291.303)"/><path class="y" d="M223.279,303.611l-12.49-.045a14.189,14.189,0,0,1-3.8-.724l-7.252-2.521c-1.139-.4-1.286-.714-.328-.71l12.49.045a14.183,14.183,0,0,1,3.8.723l7.252,2.521C224.09,303.3,224.237,303.614,223.279,303.611Z" transform="translate(-171.111 -289.992)"/><path class="x" d="M239.781,303.739l-12.49-.045a14.161,14.161,0,0,1-3.8-.723l-7.252-2.521c-1.14-.4-1.287-.714-.33-.712l12.49.045a14.244,14.244,0,0,1,3.8.724l7.252,2.521C240.592,303.425,240.739,303.743,239.781,303.739Z" transform="translate(-164.268 -289.938)"/><path class="x" d="M255.421,303.849l-12.49-.045a14.224,14.224,0,0,1-3.8-.724l-7.252-2.521c-1.14-.4-1.287-.714-.33-.71l12.49.044a14.242,14.242,0,0,1,3.8.724l7.252,2.521C256.232,303.533,256.38,303.852,255.421,303.849Z" transform="translate(-157.782 -289.893)"/></g><g transform="translate(0 0.965)"><path class="x" d="M203.723,296.727l-12.49-.045a14.16,14.16,0,0,1-3.8-.723l-7.252-2.521c-1.14-.4-1.287-.714-.33-.712l12.49.045a14.182,14.182,0,0,1,3.8.723l7.252,2.521C204.534,296.411,204.681,296.73,203.723,296.727Z" transform="translate(-179.221 -292.726)"/><path class="x" d="M220.224,296.856l-12.49-.045a14.243,14.243,0,0,1-3.8-.724l-7.252-2.521c-1.139-.4-1.287-.714-.328-.71l12.49.044a14.243,14.243,0,0,1,3.8.724l7.25,2.521C221.035,296.54,221.182,296.859,220.224,296.856Z" transform="translate(-172.378 -292.673)"/><path class="x" d="M235.865,296.965l-12.49-.045a14.182,14.182,0,0,1-3.8-.723l-7.252-2.521c-1.14-.4-1.287-.716-.33-.712l12.49.045a14.159,14.159,0,0,1,3.8.723l7.252,2.521C236.676,296.649,236.823,296.968,235.865,296.965Z" transform="translate(-165.892 -292.627)"/><path class="x" d="M213.5,300.126l-12.49-.045a14.177,14.177,0,0,1-3.8-.723l-7.252-2.521c-1.14-.4-1.287-.714-.33-.712l12.49.045a14.222,14.222,0,0,1,3.8.724l7.252,2.521C214.312,299.812,214.459,300.13,213.5,300.126Z" transform="translate(-175.166 -291.317)"/><path class="x" d="M230,300.255l-12.49-.045a14.166,14.166,0,0,1-3.8-.724l-7.252-2.521c-1.14-.4-1.287-.714-.33-.71l12.49.045a14.178,14.178,0,0,1,3.8.723l7.252,2.521C230.813,299.939,230.961,300.258,230,300.255Z" transform="translate(-168.323 -291.263)"/><path class="x" d="M245.643,300.364l-12.49-.045a14.185,14.185,0,0,1-3.8-.723l-7.252-2.521c-1.139-.4-1.286-.714-.328-.712l12.49.045a14.185,14.185,0,0,1,3.8.723l7.252,2.521C246.454,300.05,246.6,300.368,245.643,300.364Z" transform="translate(-161.837 -291.218)"/><path class="y" d="M223.279,303.524l-12.49-.044a14.242,14.242,0,0,1-3.8-.724l-7.252-2.521c-1.139-.4-1.286-.714-.328-.71l12.49.044a14.242,14.242,0,0,1,3.8.724l7.252,2.521C224.09,303.21,224.237,303.529,223.279,303.524Z" transform="translate(-171.111 -289.906)"/><path class="x" d="M239.781,303.654l-12.49-.045a14.161,14.161,0,0,1-3.8-.723l-7.252-2.521c-1.14-.4-1.287-.714-.33-.712l12.49.045a14.18,14.18,0,0,1,3.8.723l7.252,2.521C240.592,303.338,240.739,303.657,239.781,303.654Z" transform="translate(-164.268 -289.853)"/><path class="x" d="M255.421,303.763l-12.49-.044a14.22,14.22,0,0,1-3.8-.724l-7.252-2.521c-1.14-.4-1.287-.714-.33-.712l12.49.045a14.246,14.246,0,0,1,3.8.724l7.252,2.521C256.232,303.449,256.38,303.767,255.421,303.763Z" transform="translate(-157.782 -289.808)"/></g><g transform="translate(0 0.845)"><path class="x" d="M203.723,296.642l-12.49-.045a14.113,14.113,0,0,1-3.8-.724l-7.252-2.52c-1.14-.4-1.287-.716-.33-.712l12.49.045a14.179,14.179,0,0,1,3.8.723l7.252,2.521C204.534,296.326,204.681,296.645,203.723,296.642Z" transform="translate(-179.221 -292.641)"/><path class="x" d="M220.224,296.77l-12.49-.045a14.179,14.179,0,0,1-3.8-.723l-7.252-2.521c-1.139-.4-1.287-.714-.328-.712l12.49.045a14.24,14.24,0,0,1,3.8.724l7.25,2.521C221.035,296.456,221.182,296.774,220.224,296.77Z" transform="translate(-172.378 -292.588)"/><path class="x" d="M235.865,296.88l-12.49-.045a14.239,14.239,0,0,1-3.8-.724l-7.252-2.521c-1.14-.4-1.287-.714-.33-.71l12.49.045a14.156,14.156,0,0,1,3.8.723l7.252,2.521C236.676,296.564,236.823,296.883,235.865,296.88Z" transform="translate(-165.892 -292.542)"/><path class="x" d="M213.5,300.041,201.011,300a14.183,14.183,0,0,1-3.8-.723l-7.252-2.521c-1.14-.4-1.287-.714-.33-.712l12.49.045a14.164,14.164,0,0,1,3.8.723l7.252,2.521C214.312,299.725,214.459,300.044,213.5,300.041Z" transform="translate(-175.166 -291.231)"/><path class="x" d="M230,300.17l-12.49-.045a14.223,14.223,0,0,1-3.8-.724l-7.252-2.521c-1.14-.4-1.287-.714-.33-.71l12.49.044a14.239,14.239,0,0,1,3.8.724l7.252,2.521C230.813,299.854,230.961,300.173,230,300.17Z" transform="translate(-168.323 -291.178)"/><path class="x" d="M245.643,300.279l-12.49-.045a14.18,14.18,0,0,1-3.8-.723L222.1,296.99c-1.139-.4-1.286-.714-.328-.712l12.49.045a14.18,14.18,0,0,1,3.8.723l7.252,2.521C246.454,299.963,246.6,300.282,245.643,300.279Z" transform="translate(-161.837 -291.133)"/><path class="y" d="M223.279,303.44l-12.49-.045a14.179,14.179,0,0,1-3.8-.723l-7.252-2.521c-1.139-.4-1.286-.714-.328-.712l12.49.045a14.243,14.243,0,0,1,3.8.724l7.252,2.521C224.09,303.126,224.237,303.444,223.279,303.44Z" transform="translate(-171.111 -289.822)"/><path class="x" d="M239.781,303.569l-12.49-.045a14.112,14.112,0,0,1-3.8-.724l-7.252-2.52c-1.14-.4-1.287-.716-.33-.712l12.49.045a14.182,14.182,0,0,1,3.8.723l7.252,2.521C240.592,303.253,240.739,303.572,239.781,303.569Z" transform="translate(-164.268 -289.768)"/><path class="x" d="M255.421,303.678l-12.49-.045a14.16,14.16,0,0,1-3.8-.723l-7.252-2.521c-1.14-.4-1.287-.714-.33-.712l12.49.045a14.131,14.131,0,0,1,3.8.724l7.252,2.52C256.232,303.364,256.38,303.682,255.421,303.678Z" transform="translate(-157.782 -289.723)"/></g><g transform="translate(0 0.724)"><path class="x" d="M203.723,296.555l-12.49-.044a14.222,14.222,0,0,1-3.8-.724l-7.252-2.521c-1.14-.4-1.287-.714-.33-.71l12.49.044a14.243,14.243,0,0,1,3.8.724l7.252,2.521C204.534,296.241,204.681,296.56,203.723,296.555Z" transform="translate(-179.221 -292.556)"/><path class="x" d="M220.224,296.685l-12.49-.045a14.181,14.181,0,0,1-3.8-.723l-7.252-2.521c-1.139-.4-1.287-.714-.328-.712l12.49.045a14.179,14.179,0,0,1,3.8.723l7.25,2.521C221.035,296.369,221.182,296.688,220.224,296.685Z" transform="translate(-172.378 -292.503)"/><path class="x" d="M235.865,296.794l-12.49-.044a14.242,14.242,0,0,1-3.8-.724l-7.252-2.521c-1.14-.4-1.287-.714-.33-.712l12.49.045a14.22,14.22,0,0,1,3.8.724l7.252,2.521C236.676,296.48,236.823,296.8,235.865,296.794Z" transform="translate(-165.892 -292.458)"/><path class="x" d="M213.5,299.956l-12.49-.045a14.246,14.246,0,0,1-3.8-.724l-7.252-2.521c-1.14-.4-1.287-.714-.33-.71l12.49.045a14.162,14.162,0,0,1,3.8.723l7.252,2.521C214.312,299.64,214.459,299.959,213.5,299.956Z" transform="translate(-175.166 -291.147)"/><path class="x" d="M230,300.084l-12.49-.045a14.156,14.156,0,0,1-3.8-.723l-7.252-2.521c-1.14-.4-1.287-.714-.33-.712l12.49.045a14.243,14.243,0,0,1,3.8.724l7.252,2.521C230.813,299.77,230.961,300.088,230,300.084Z" transform="translate(-168.323 -291.093)"/><path class="x" d="M245.643,300.194l-12.49-.045a14.243,14.243,0,0,1-3.8-.724L222.1,296.9c-1.139-.4-1.286-.714-.328-.71l12.49.044a14.239,14.239,0,0,1,3.8.724l7.252,2.521C246.454,299.878,246.6,300.2,245.643,300.194Z" transform="translate(-161.837 -291.048)"/><path class="y" d="M223.279,303.355l-12.49-.045a14.181,14.181,0,0,1-3.8-.723l-7.252-2.521c-1.139-.4-1.286-.714-.328-.712l12.49.045a14.182,14.182,0,0,1,3.8.723l7.252,2.521C224.09,303.039,224.237,303.358,223.279,303.355Z" transform="translate(-171.111 -289.737)"/><path class="x" d="M239.781,303.484l-12.49-.045a14.22,14.22,0,0,1-3.8-.724l-7.252-2.521c-1.14-.4-1.287-.714-.33-.71l12.49.044a14.24,14.24,0,0,1,3.8.724l7.252,2.521C240.592,303.168,240.739,303.487,239.781,303.484Z" transform="translate(-164.268 -289.683)"/><path class="x" d="M255.421,303.593l-12.49-.045a14.16,14.16,0,0,1-3.8-.723l-7.252-2.521c-1.14-.4-1.287-.716-.33-.712l12.49.045a14.184,14.184,0,0,1,3.8.723l7.252,2.521C256.232,303.277,256.38,303.6,255.421,303.593Z" transform="translate(-157.782 -289.638)"/></g><g transform="translate(0 0.603)"><path class="x" d="M203.723,296.471l-12.49-.045a14.16,14.16,0,0,1-3.8-.723l-7.252-2.521c-1.14-.4-1.287-.714-.33-.712l12.49.045a14.241,14.241,0,0,1,3.8.724l7.252,2.521C204.534,296.157,204.681,296.475,203.723,296.471Z" transform="translate(-179.221 -292.47)"/><path class="x" d="M220.224,296.6l-12.49-.045a14.129,14.129,0,0,1-3.8-.724l-7.252-2.52c-1.139-.4-1.287-.716-.328-.712l12.49.045a14.18,14.18,0,0,1,3.8.723l7.25,2.521C221.035,296.284,221.182,296.6,220.224,296.6Z" transform="translate(-172.378 -292.417)"/><path class="x" d="M235.865,296.709l-12.49-.045a14.18,14.18,0,0,1-3.8-.723l-7.252-2.521c-1.14-.4-1.287-.714-.33-.712l12.49.045a14.113,14.113,0,0,1,3.8.724l7.252,2.52C236.676,296.395,236.823,296.713,235.865,296.709Z" transform="translate(-165.892 -292.371)"/><path class="x" d="M213.5,299.871l-12.49-.045a14.241,14.241,0,0,1-3.8-.724l-7.252-2.521c-1.14-.4-1.287-.714-.33-.71l12.49.044a14.223,14.223,0,0,1,3.8.724l7.252,2.521C214.312,299.555,214.459,299.874,213.5,299.871Z" transform="translate(-175.166 -291.06)"/><path class="x" d="M230,300l-12.49-.045a14.165,14.165,0,0,1-3.8-.723l-7.252-2.521c-1.14-.4-1.287-.714-.33-.712l12.49.045a14.182,14.182,0,0,1,3.8.723l7.252,2.521C230.813,299.683,230.961,300,230,300Z" transform="translate(-168.323 -291.007)"/><path class="x" d="M245.643,300.108l-12.49-.044a14.242,14.242,0,0,1-3.8-.724l-7.252-2.521c-1.139-.4-1.286-.714-.328-.712l12.49.045a14.244,14.244,0,0,1,3.8.724l7.252,2.521C246.454,299.794,246.6,300.112,245.643,300.108Z" transform="translate(-161.837 -290.962)"/><path class="y" d="M223.279,303.27l-12.49-.045a14.128,14.128,0,0,1-3.8-.724l-7.252-2.52c-1.139-.4-1.286-.716-.328-.712l12.49.045a14.182,14.182,0,0,1,3.8.723l7.252,2.521C224.09,302.954,224.237,303.273,223.279,303.27Z" transform="translate(-171.111 -289.651)"/><path class="x" d="M239.781,303.4l-12.49-.044a14.224,14.224,0,0,1-3.8-.724l-7.252-2.521c-1.14-.4-1.287-.714-.33-.712l12.49.045a14.244,14.244,0,0,1,3.8.724l7.252,2.521C240.592,303.084,240.739,303.4,239.781,303.4Z" transform="translate(-164.268 -289.597)"/><path class="x" d="M255.421,303.508l-12.49-.045a14.224,14.224,0,0,1-3.8-.724l-7.252-2.521c-1.14-.4-1.287-.714-.33-.71l12.49.045a14.181,14.181,0,0,1,3.8.723l7.252,2.521C256.232,303.192,256.38,303.511,255.421,303.508Z" transform="translate(-157.782 -289.552)"/></g><g transform="translate(0 0.482)"><path class="x" d="M203.723,296.386l-12.49-.045a14.161,14.161,0,0,1-3.8-.723l-7.252-2.521c-1.14-.4-1.287-.714-.33-.712l12.49.045a14.184,14.184,0,0,1,3.8.723l7.252,2.521C204.534,296.07,204.681,296.389,203.723,296.386Z" transform="translate(-179.221 -292.385)"/><path class="x" d="M220.224,296.515l-12.49-.045a14.241,14.241,0,0,1-3.8-.724l-7.252-2.521c-1.139-.4-1.287-.714-.328-.71l12.49.044a14.238,14.238,0,0,1,3.8.724l7.25,2.521C221.035,296.2,221.182,296.518,220.224,296.515Z" transform="translate(-172.378 -292.332)"/><path class="x" d="M235.865,296.624l-12.49-.045a14.182,14.182,0,0,1-3.8-.723l-7.252-2.521c-1.14-.4-1.287-.716-.33-.712l12.49.045a14.162,14.162,0,0,1,3.8.723l7.252,2.521C236.676,296.308,236.823,296.627,235.865,296.624Z" transform="translate(-165.892 -292.286)"/><path class="x" d="M213.5,299.785l-12.49-.045a14.179,14.179,0,0,1-3.8-.723l-7.252-2.521c-1.14-.4-1.287-.714-.33-.711l12.49.045a14.224,14.224,0,0,1,3.8.724l7.252,2.521C214.312,299.471,214.459,299.789,213.5,299.785Z" transform="translate(-175.166 -290.976)"/><path class="x" d="M230,299.914l-12.49-.045a14.166,14.166,0,0,1-3.8-.724l-7.252-2.521c-1.14-.4-1.287-.714-.33-.71l12.49.045a14.18,14.18,0,0,1,3.8.723l7.252,2.521C230.813,299.6,230.961,299.917,230,299.914Z" transform="translate(-168.323 -290.922)"/><path class="x" d="M245.643,300.023l-12.49-.045a14.177,14.177,0,0,1-3.8-.723l-7.252-2.521c-1.139-.4-1.286-.714-.328-.712l12.49.045a14.181,14.181,0,0,1,3.8.723l7.252,2.521C246.454,299.709,246.6,300.027,245.643,300.023Z" transform="translate(-161.837 -290.877)"/><path class="y" d="M223.279,303.183l-12.49-.044a14.245,14.245,0,0,1-3.8-.724l-7.252-2.521c-1.139-.4-1.286-.714-.328-.71l12.49.044a14.239,14.239,0,0,1,3.8.724l7.252,2.521C224.09,302.869,224.237,303.188,223.279,303.183Z" transform="translate(-171.111 -289.566)"/><path class="x" d="M239.781,303.313l-12.49-.045a14.159,14.159,0,0,1-3.8-.723l-7.252-2.521c-1.14-.4-1.287-.714-.33-.712l12.49.045a14.184,14.184,0,0,1,3.8.723l7.252,2.521C240.592,303,240.739,303.316,239.781,303.313Z" transform="translate(-164.268 -289.512)"/><path class="x" d="M255.421,303.422l-12.49-.044a14.225,14.225,0,0,1-3.8-.724l-7.252-2.521c-1.14-.4-1.287-.714-.33-.712l12.49.045a14.241,14.241,0,0,1,3.8.724l7.252,2.521C256.232,303.108,256.38,303.426,255.421,303.422Z" transform="translate(-157.782 -289.467)"/></g><g transform="translate(0 0.362)"><path class="x" d="M203.723,296.3l-12.49-.045a14.113,14.113,0,0,1-3.8-.724l-7.252-2.52c-1.14-.4-1.287-.716-.33-.712l12.49.045a14.182,14.182,0,0,1,3.8.723l7.252,2.521C204.534,295.985,204.681,296.3,203.723,296.3Z" transform="translate(-179.221 -292.3)"/><path class="x" d="M220.224,296.429l-12.49-.045a14.185,14.185,0,0,1-3.8-.723l-7.252-2.521c-1.139-.4-1.287-.714-.328-.712l12.49.045a14.242,14.242,0,0,1,3.8.724l7.25,2.521C221.035,296.115,221.182,296.433,220.224,296.429Z" transform="translate(-172.378 -292.247)"/><path class="x" d="M235.865,296.539l-12.49-.045a14.24,14.24,0,0,1-3.8-.724l-7.252-2.521c-1.14-.4-1.287-.714-.33-.71l12.49.045a14.161,14.161,0,0,1,3.8.723l7.252,2.521C236.676,296.223,236.823,296.542,235.865,296.539Z" transform="translate(-165.892 -292.201)"/><path class="x" d="M213.5,299.7l-12.49-.045a14.179,14.179,0,0,1-3.8-.723l-7.252-2.521c-1.14-.4-1.287-.714-.33-.712l12.49.045a14.162,14.162,0,0,1,3.8.723l7.252,2.521C214.312,299.384,214.459,299.7,213.5,299.7Z" transform="translate(-175.166 -290.89)"/><path class="x" d="M230,299.829l-12.49-.045a14.222,14.222,0,0,1-3.8-.724l-7.252-2.521c-1.14-.4-1.287-.714-.33-.71l12.49.044a14.238,14.238,0,0,1,3.8.724l7.252,2.521C230.813,299.513,230.961,299.832,230,299.829Z" transform="translate(-168.323 -290.837)"/><path class="x" d="M245.643,299.938l-12.49-.045a14.179,14.179,0,0,1-3.8-.723l-7.252-2.521c-1.139-.4-1.286-.714-.328-.712l12.49.045a14.181,14.181,0,0,1,3.8.723l7.252,2.521C246.454,299.622,246.6,299.941,245.643,299.938Z" transform="translate(-161.837 -290.792)"/><path class="y" d="M223.279,303.1l-12.49-.045a14.186,14.186,0,0,1-3.8-.723l-7.252-2.521c-1.139-.4-1.286-.714-.328-.712l12.49.045a14.242,14.242,0,0,1,3.8.724l7.252,2.521C224.09,302.785,224.237,303.1,223.279,303.1Z" transform="translate(-171.111 -289.481)"/><path class="x" d="M239.781,303.228l-12.49-.045a14.111,14.111,0,0,1-3.8-.724l-7.252-2.52c-1.14-.4-1.287-.716-.33-.712l12.49.045a14.181,14.181,0,0,1,3.8.723l7.252,2.521C240.592,302.912,240.739,303.231,239.781,303.228Z" transform="translate(-164.268 -289.427)"/><path class="x" d="M255.421,303.337l-12.49-.045a14.159,14.159,0,0,1-3.8-.723l-7.252-2.521c-1.14-.4-1.287-.714-.33-.712l12.49.045a14.132,14.132,0,0,1,3.8.724l7.252,2.52C256.232,303.023,256.38,303.341,255.421,303.337Z" transform="translate(-157.782 -289.382)"/></g><g transform="translate(0 0.242)"><path class="x" d="M203.723,296.214l-12.49-.044a14.22,14.22,0,0,1-3.8-.724l-7.252-2.521c-1.14-.4-1.287-.714-.33-.71l12.49.044a14.243,14.243,0,0,1,3.8.724l7.252,2.521C204.534,295.9,204.681,296.219,203.723,296.214Z" transform="translate(-179.221 -292.215)"/><path class="x" d="M220.224,296.344l-12.49-.045a14.178,14.178,0,0,1-3.8-.723l-7.252-2.521c-1.139-.4-1.287-.714-.328-.712l12.49.045a14.18,14.18,0,0,1,3.8.723l7.25,2.521C221.035,296.028,221.182,296.347,220.224,296.344Z" transform="translate(-172.378 -292.162)"/><path class="x" d="M235.865,296.453l-12.49-.044a14.241,14.241,0,0,1-3.8-.724l-7.252-2.521c-1.14-.4-1.287-.714-.33-.712l12.49.045a14.222,14.222,0,0,1,3.8.724l7.252,2.521C236.676,296.139,236.823,296.457,235.865,296.453Z" transform="translate(-165.892 -292.117)"/><path class="x" d="M213.5,299.615l-12.49-.045a14.243,14.243,0,0,1-3.8-.724l-7.252-2.521c-1.14-.4-1.287-.714-.33-.71l12.49.045a14.162,14.162,0,0,1,3.8.723l7.252,2.521C214.312,299.3,214.459,299.618,213.5,299.615Z" transform="translate(-175.166 -290.805)"/><path class="x" d="M230,299.743l-12.49-.045a14.16,14.16,0,0,1-3.8-.723l-7.252-2.521c-1.14-.4-1.287-.714-.33-.712l12.49.045a14.245,14.245,0,0,1,3.8.724l7.252,2.521C230.813,299.429,230.961,299.747,230,299.743Z" transform="translate(-168.323 -290.752)"/><path class="x" d="M245.643,299.853l-12.49-.045a14.243,14.243,0,0,1-3.8-.724l-7.252-2.521c-1.139-.4-1.286-.714-.328-.71l12.49.044a14.243,14.243,0,0,1,3.8.724l7.252,2.521C246.454,299.537,246.6,299.856,245.643,299.853Z" transform="translate(-161.837 -290.707)"/><path class="y" d="M223.279,303.014l-12.49-.045a14.179,14.179,0,0,1-3.8-.723l-7.252-2.521c-1.139-.4-1.286-.714-.328-.712l12.49.045a14.184,14.184,0,0,1,3.8.723l7.252,2.521C224.09,302.7,224.237,303.017,223.279,303.014Z" transform="translate(-171.111 -289.396)"/><path class="x" d="M239.781,303.143l-12.49-.045a14.222,14.222,0,0,1-3.8-.724l-7.252-2.521c-1.14-.4-1.287-.714-.33-.71l12.49.044a14.242,14.242,0,0,1,3.8.724l7.252,2.521C240.592,302.827,240.739,303.146,239.781,303.143Z" transform="translate(-164.268 -289.342)"/><path class="x" d="M255.421,303.252l-12.49-.045a14.161,14.161,0,0,1-3.8-.723l-7.252-2.521c-1.14-.4-1.287-.716-.33-.712l12.49.045a14.183,14.183,0,0,1,3.8.723l7.252,2.521C256.232,302.936,256.38,303.255,255.421,303.252Z" transform="translate(-157.782 -289.297)"/></g><g transform="translate(0 0.12)"><path class="x" d="M203.723,296.13l-12.49-.045a14.16,14.16,0,0,1-3.8-.723l-7.252-2.521c-1.14-.4-1.287-.714-.33-.712l12.49.045a14.241,14.241,0,0,1,3.8.724l7.252,2.521C204.534,295.816,204.681,296.134,203.723,296.13Z" transform="translate(-179.221 -292.129)"/><path class="x" d="M220.224,296.259l-12.49-.045a14.132,14.132,0,0,1-3.8-.724l-7.252-2.52c-1.139-.4-1.287-.716-.328-.712l12.49.045a14.179,14.179,0,0,1,3.8.723l7.25,2.521C221.035,295.943,221.182,296.262,220.224,296.259Z" transform="translate(-172.378 -292.076)"/><path class="x" d="M235.865,296.368l-12.49-.045a14.178,14.178,0,0,1-3.8-.723l-7.252-2.521c-1.14-.4-1.287-.714-.33-.712l12.49.045a14.112,14.112,0,0,1,3.8.724l7.252,2.52C236.676,296.054,236.823,296.372,235.865,296.368Z" transform="translate(-165.892 -292.03)"/><path class="x" d="M213.5,299.53l-12.49-.045a14.247,14.247,0,0,1-3.8-.724l-7.252-2.521c-1.14-.4-1.287-.714-.33-.71l12.49.044a14.22,14.22,0,0,1,3.8.724l7.252,2.521C214.312,299.214,214.459,299.533,213.5,299.53Z" transform="translate(-175.166 -290.719)"/><path class="x" d="M230,299.658l-12.49-.045a14.16,14.16,0,0,1-3.8-.723l-7.252-2.521c-1.14-.4-1.287-.714-.33-.712l12.49.045a14.18,14.18,0,0,1,3.8.723l7.252,2.521C230.813,299.342,230.961,299.662,230,299.658Z" transform="translate(-168.323 -290.666)"/><path class="x" d="M245.643,299.767l-12.49-.044a14.241,14.241,0,0,1-3.8-.724l-7.252-2.521c-1.139-.4-1.286-.714-.328-.712l12.49.045a14.243,14.243,0,0,1,3.8.724l7.252,2.521C246.454,299.453,246.6,299.771,245.643,299.767Z" transform="translate(-161.837 -290.621)"/><path class="y" d="M223.279,302.929l-12.49-.045a14.132,14.132,0,0,1-3.8-.724l-7.252-2.52c-1.139-.4-1.286-.716-.328-.712l12.49.045a14.182,14.182,0,0,1,3.8.723l7.252,2.521C224.09,302.613,224.237,302.932,223.279,302.929Z" transform="translate(-171.111 -289.31)"/><path class="x" d="M239.781,303.057l-12.49-.044a14.22,14.22,0,0,1-3.8-.724l-7.252-2.521c-1.14-.4-1.287-.714-.33-.712l12.49.045a14.241,14.241,0,0,1,3.8.724l7.252,2.521C240.592,302.743,240.739,303.061,239.781,303.057Z" transform="translate(-164.268 -289.256)"/><path class="x" d="M255.421,303.167l-12.49-.045a14.22,14.22,0,0,1-3.8-.724l-7.252-2.521c-1.14-.4-1.287-.714-.33-.71l12.49.045a14.18,14.18,0,0,1,3.8.723l7.252,2.521C256.232,302.851,256.38,303.17,255.421,303.167Z" transform="translate(-157.782 -289.211)"/></g><path class="x" d="M203.723,296.045,191.233,296a14.159,14.159,0,0,1-3.8-.723l-7.252-2.521c-1.14-.4-1.287-.714-.33-.712l12.49.045a14.183,14.183,0,0,1,3.8.723l7.252,2.521C204.534,295.729,204.681,296.048,203.723,296.045Z" transform="translate(-179.221 -292.044)"/><path class="x" d="M220.224,296.174l-12.49-.045a14.241,14.241,0,0,1-3.8-.724l-7.252-2.521c-1.139-.4-1.287-.714-.328-.71l12.49.044a14.243,14.243,0,0,1,3.8.724l7.25,2.521C221.035,295.858,221.182,296.177,220.224,296.174Z" transform="translate(-172.378 -291.991)"/><path class="x" d="M235.865,296.283l-12.49-.045a14.181,14.181,0,0,1-3.8-.723l-7.252-2.521c-1.14-.4-1.287-.714-.33-.712l12.49.045a14.162,14.162,0,0,1,3.8.723l7.252,2.521C236.676,295.967,236.823,296.286,235.865,296.283Z" transform="translate(-165.892 -291.945)"/><path class="x" d="M213.5,299.444l-12.49-.045a14.181,14.181,0,0,1-3.8-.723l-7.252-2.521c-1.14-.4-1.287-.714-.33-.712l12.49.045a14.224,14.224,0,0,1,3.8.724l7.252,2.521C214.312,299.13,214.459,299.448,213.5,299.444Z" transform="translate(-175.166 -290.635)"/><path class="x" d="M230,299.573l-12.49-.045a14.112,14.112,0,0,1-3.8-.724l-7.252-2.52c-1.14-.4-1.287-.716-.33-.712l12.49.045a14.183,14.183,0,0,1,3.8.723l7.252,2.521C230.813,299.257,230.961,299.576,230,299.573Z" transform="translate(-168.323 -290.581)"/><path class="x" d="M245.643,299.682l-12.49-.045a14.181,14.181,0,0,1-3.8-.723l-7.252-2.521c-1.139-.4-1.286-.714-.328-.712l12.49.045a14.186,14.186,0,0,1,3.8.724l7.252,2.52C246.454,299.368,246.6,299.686,245.643,299.682Z" transform="translate(-161.837 -290.536)"/><path class="y" d="M223.279,302.844l-12.49-.045a14.245,14.245,0,0,1-3.8-.724l-7.252-2.521c-1.139-.4-1.286-.714-.328-.71l12.49.044a14.244,14.244,0,0,1,3.8.724l7.252,2.521C224.09,302.528,224.237,302.847,223.279,302.844Z" transform="translate(-171.111 -289.225)"/><path class="x" d="M239.781,302.972l-12.49-.045a14.158,14.158,0,0,1-3.8-.723l-7.252-2.521c-1.14-.4-1.287-.714-.33-.712l12.49.045a14.183,14.183,0,0,1,3.8.723l7.252,2.521C240.592,302.656,240.739,302.975,239.781,302.972Z" transform="translate(-164.268 -289.171)"/><path class="x" d="M255.421,303.08l-12.49-.044a14.223,14.223,0,0,1-3.8-.724l-7.252-2.521c-1.14-.4-1.287-.714-.33-.71l12.49.044a14.242,14.242,0,0,1,3.8.724l7.252,2.521C256.232,302.766,256.38,303.085,255.421,303.08Z" transform="translate(-157.782 -289.126)"/><path class="c" d="M203.723,296.045,191.233,296a14.22,14.22,0,0,1-3.8-.724l-7.252-2.521c-1.14-.4-1.287-.714-.33-.712l12.49.045a14.244,14.244,0,0,1,3.8.724l7.252,2.521C204.534,295.731,204.681,296.049,203.723,296.045Z" transform="translate(-179.221 -292.044)"/><path class="c" d="M220.224,296.174l-12.49-.045a14.179,14.179,0,0,1-3.8-.723l-7.252-2.521c-1.139-.4-1.287-.714-.328-.712l12.49.045a14.183,14.183,0,0,1,3.8.723l7.25,2.521C221.035,295.858,221.182,296.177,220.224,296.174Z" transform="translate(-172.378 -291.99)"/><path class="c" d="M235.865,296.283l-12.49-.045a14.181,14.181,0,0,1-3.8-.723l-7.252-2.521c-1.14-.4-1.287-.714-.33-.712l12.49.045a14.224,14.224,0,0,1,3.8.724l7.252,2.521C236.676,295.969,236.823,296.287,235.865,296.283Z" transform="translate(-165.892 -291.945)"/><path class="c" d="M213.5,299.445l-12.49-.045a14.238,14.238,0,0,1-3.8-.724l-7.252-2.521c-1.14-.4-1.287-.714-.33-.71l12.49.045a14.161,14.161,0,0,1,3.8.723l7.252,2.521C214.312,299.129,214.459,299.448,213.5,299.445Z" transform="translate(-175.166 -290.634)"/><path class="c" d="M230,299.573l-12.49-.045a14.163,14.163,0,0,1-3.8-.723l-7.252-2.521c-1.14-.4-1.287-.714-.33-.712l12.49.045a14.183,14.183,0,0,1,3.8.723l7.252,2.521C230.813,299.257,230.961,299.577,230,299.573Z" transform="translate(-168.323 -290.581)"/><path class="c" d="M245.643,299.683l-12.49-.045a14.241,14.241,0,0,1-3.8-.724l-7.252-2.521c-1.139-.4-1.286-.714-.328-.71l12.49.044a14.244,14.244,0,0,1,3.8.724l7.252,2.521C246.454,299.367,246.6,299.686,245.643,299.683Z" transform="translate(-161.837 -290.535)"/><path class="z" d="M223.279,302.777l-12.49-.045a14.179,14.179,0,0,1-3.8-.723l-7.252-2.521c-1.139-.4-1.286-.714-.328-.712l12.49.045a14.184,14.184,0,0,1,3.8.723l7.252,2.521C224.09,302.461,224.237,302.78,223.279,302.777Z" transform="translate(-171.111 -289.252)"/><path class="c" d="M239.781,302.972l-12.49-.044a14.22,14.22,0,0,1-3.8-.724l-7.252-2.521c-1.14-.4-1.287-.714-.33-.712l12.49.045a14.245,14.245,0,0,1,3.8.724l7.252,2.521C240.592,302.658,240.739,302.976,239.781,302.972Z" transform="translate(-164.268 -289.171)"/><path class="c" d="M255.421,303.082l-12.49-.045a14.167,14.167,0,0,1-3.8-.724l-7.252-2.52c-1.14-.4-1.287-.716-.33-.712l12.49.045a14.183,14.183,0,0,1,3.8.723l7.252,2.521C256.232,302.766,256.38,303.085,255.421,303.082Z" transform="translate(-157.782 -289.126)"/></g><path class="aa" d="M198.8,304.773l2.554.163-5.711-2.5-4.14-.532Z" transform="translate(-108.798 -278.014)"/><path class="aa" d="M258.428,306.551h3.51a92.78,92.78,0,0,0-9.086-6.294h-4.166A111.315,111.315,0,0,1,258.428,306.551Z" transform="translate(-85.086 -278.699)"/></g></g><g transform="translate(406.755 272.501)"><g transform="translate(9.746 0)"><path class="ab" d="M423.262,308.156a57.8,57.8,0,0,1-1.125,22.232,61.043,61.043,0,0,1-3.406,9.83c-1.769,4.067-3.617,8.039-3.172,12.49.43.286-1.044.239-1.091-.194-11.895-6.77-27.147-8.011-36.3-19.084-4.335-5.242-6.522-11.887-7.559-18.534-1.126-7.237-1.439-15.251.428-22.383,1.574-6.034,5.1-11.852,10.768-14.809,5.852-3.042,13.515-2.79,19.677-.876C414.773,280.956,421.383,295.3,423.262,308.156Z" transform="translate(-369.699 -275.399)"/><g transform="translate(7.939 13.11)"><path class="ac" d="M426.168,392.029c-1.624-5.409-3.244-10.82-4.91-16.217-3.265-10.57-6.657-21.1-10.412-31.51q-3.375-9.352-7.119-18.523a112.178,112.178,0,0,1,1.42-11.5c.994-4.611,2.439-9.066,3.784-13.577.082-.279-.367-.424-.48-.161-2.671,6.217-6.156,14.173-6.242,21.535q-4.358-10.378-9.349-20.462c-.189-5.727-.4-11.277.524-17.041a.2.2,0,0,0-.4-.078,60.276,60.276,0,0,0-1.165,15.042q-3.835-7.57-8.117-14.943c-.258-.443-.87.009-.642.444,4.469,8.607,8.615,17.395,12.5,26.3a57.215,57.215,0,0,0-18.647-10.8c-.3-.106-.519.323-.217.449a67.908,67.908,0,0,1,20.168,13.354q4.2,9.779,8,19.715c-7.443-7.3-17.627-12.094-27.478-14.668-.336-.088-.424.425-.1.522,11.4,3.434,20.256,9.9,28.926,17.662q1.512,4.015,2.966,8.048,5.509,15.29,10.493,30.762,2.4,7.412,4.721,14.847c1.665,5.334,2.964,10.966,5.13,16.116.207.493,1.09.38.977-.21C429.522,402.029,427.663,397.009,426.168,392.029Z" transform="translate(-374.439 -284.338)"/><path class="ac" d="M398.295,290.682a29.542,29.542,0,0,0-4.284,10.676c-.019.1.133.157.17.057a92.182,92.182,0,0,1,4.645-10.477C399,290.591,398.5,290.374,398.295,290.682Z" transform="translate(-366.294 -281.446)"/><path class="ac" d="M385.895,308.675a31.334,31.334,0,0,0-10.674-3.595c-.1-.012-.157.129-.056.172,1.716.711,3.519,1.209,5.255,1.876s3.445,1.484,5.208,2.1A.306.306,0,0,0,385.895,308.675Z" transform="translate(-375.112 -274.658)"/><path class="ac" d="M379.564,287.884a21.069,21.069,0,0,0-3.435-2.119.182.182,0,0,0-.2.3,20.93,20.93,0,0,0,3.384,2.2C379.535,288.393,379.779,288.026,379.564,287.884Z" transform="translate(-374.759 -283.679)"/></g></g><g transform="translate(65.088 8.195)"><path class="ab" d="M445.29,345.945c-8.567,2.543-17.176,4.893-25.742,7.407-.743.223-15.224-27.527-9.991-41.821,4.837-13.232,15.912-23.134,29.115-27.628,6.117-2.078,13.637-3.822,20.1-2.4,5.745,1.272,9.8,5.974,11.67,11.377,2.543,7.344,1.7,16.1.312,23.6-1.286,6.952-3.83,13.8-8.429,19.262C457.773,341.15,451.968,343.965,445.29,345.945Z" transform="translate(-406.972 -280.987)"/><g transform="translate(0 7.921)"><path class="ac" d="M458.169,314.149a114.143,114.143,0,0,1-16.795,6.612c-3.642,1.17-7.721,2.228-11.211,4.06,3.617-8.065,7.586-15.962,11.8-23.787,5.534-1.6,11.354-4.1,15.528-8.015a.239.239,0,0,0-.312-.361c-4.564,3.225-9.6,5.163-14.648,7.342,1.141-2.1,2.288-4.208,3.461-6.307.327-.582-.477-1.163-.87-.6a181.081,181.081,0,0,0-12.172,20.441,93.519,93.519,0,0,1-.88-18.73.125.125,0,0,0-.249-.018,62.379,62.379,0,0,0,.211,20.581c-3,6-5.742,12.138-8.2,18.358-.977-3.737-2.247-7.416-3.095-11.182a51.412,51.412,0,0,1-1.231-16.491c.016-.161-.223-.173-.249-.018a58.143,58.143,0,0,0,3.595,30.271c-1.433,3.744-2.8,7.5-4.048,11.267a224.572,224.572,0,0,0-11.37,59.436.363.363,0,0,0,.724.051,294.736,294.736,0,0,1,12.766-58.735c2.485-7.468,5.343-14.72,8.48-21.836,5.058-1.495,10.1-3.524,15.069-5.245,4.849-1.679,9.818-3.623,13.89-6.81C458.521,314.316,458.346,314.06,458.169,314.149Z" transform="translate(-407.433 -283.484)"/><path class="ac" d="M452.424,301.8c-5.239,1.863-10.2,4.472-15.438,6.361-.245.088-.1.477.145.425,5.538-1.142,11.031-2.854,15.493-6.486C452.795,301.963,452.606,301.738,452.424,301.8Z" transform="translate(-393.7 -279.198)"/><path class="ac" d="M418.983,294.188c.063-.277-.343-.437-.428-.151-1.436,4.828-2.429,9.953-1.03,14.89a.188.188,0,0,0,.37-.023C418.146,303.93,417.869,299.091,418.983,294.188Z" transform="translate(-403.037 -282.887)"/><path class="ac" d="M433.792,286.532a12.787,12.787,0,0,0-2.273,8.212c.007.185.3.292.352.075.638-2.763,1.706-5.281,2.553-7.964A.36.36,0,0,0,433.792,286.532Z" transform="translate(-396.198 -286.387)"/></g></g><g transform="translate(0 68.214)"><path class="ad" d="M364.567,339.087c2.511,7.97,8.479,18.988,17.929,19.076,6.126.057,12.3-.667,18.438-.755,6.575-.1,13.166-.086,19.728.305.537.029-.788-19.692-16.594-29.3-4.428-2.69-9.841-3.542-14.865-4.63a68.8,68.8,0,0,0-17.566-1.83c-3.629.145-6.648.915-7.941,4.632C362.347,330.478,363.363,335.3,364.567,339.087Z" transform="translate(-363.055 -321.909)"/><g transform="translate(5.001 3.439)"><path class="ac" d="M368.878,328.018c3.841.989,7.716,2.122,11.571,3.347a40.072,40.072,0,0,0-3.186-3.106c-1.654-1.377-3.476-2.476-5.252-3.681-.148-.1-.06-.386.132-.311a21.675,21.675,0,0,1,9.321,7.413c4.8,1.552,9.561,3.265,14.142,5.144a53.369,53.369,0,0,1,9.054,4.768,36.4,36.4,0,0,0-3.277-5.7c-2.1-2.719-4.935-4.234-7.681-6.165a.244.244,0,0,1,.246-.421c6.2,2.756,9.973,7.231,12.326,13.366a52.675,52.675,0,0,1,8.966,8.141c10.456,11.877,18.693,27.681,18.722,43.807,0,.384-.616.493-.691.094-2.967-16.019-9.293-30.4-19.942-42.836-.748-.873-1.515-1.706-2.3-2.51a71.939,71.939,0,0,0-8.64-.641c-3.365.05-6.7.494-10.053.766-5.518.449-11.619.513-16.6-2.262-.219-.122-.07-.5.174-.415,11.1,4.035,22.732-1.082,33.854,1.323a51.979,51.979,0,0,0-16.4-10.578c-.339-.141-.681-.271-1.019-.408-7.121.855-14.639,2.71-21.573.4a.171.171,0,0,1,.091-.328c6.7,1.675,13.127-.431,19.739-.766-7.2-2.8-14.538-5.034-21.761-7.818C368.236,328.4,368.223,327.849,368.878,328.018Z" transform="translate(-365.567 -324.254)"/><path class="ac" d="M366.635,331.6a95.492,95.492,0,0,0,10.364.785c.079,0,.1.126.019.145a21.5,21.5,0,0,1-10.456-.667A.136.136,0,0,1,366.635,331.6Z" transform="translate(-366.465 -320.826)"/><path class="ac" d="M382.664,326.944a16.991,16.991,0,0,1,5.13,3.567c.18.16-.062.484-.261.339-.87-.634-1.764-1.231-2.668-1.814a25.1,25.1,0,0,1-2.5-1.58A.308.308,0,0,1,382.664,326.944Z" transform="translate(-359.087 -323.005)"/></g></g><g transform="translate(60.485 75.901)"><path class="ae" d="M420.6,352.5c-.116.261.261.508.406.232.015,0,.015,0,.015-.013a.372.372,0,0,0,.246.158,158.738,158.738,0,0,0,19.307,3.369c5.227.464,11.251.754,15.824-2.279,6.2-4.108,10.279-15.1,6.924-22.081-3.963-8.29-15.91-3.79-21.906-.842A43.977,43.977,0,0,0,420.6,352.5Z" transform="translate(-396.695 -327.149)"/><g transform="translate(0 4.849)"><path class="ac" d="M423.56,354.793a61.649,61.649,0,0,1,11.53-8.777A39.469,39.469,0,0,1,446.781,334.1c.227-.155.421.2.211.364a52.77,52.77,0,0,0-9.85,10.362,108.454,108.454,0,0,1,14.463-6.578,19.273,19.273,0,0,1,7.771-7.787c.065-.032.147.057.082.107a31.968,31.968,0,0,0-7.018,7.364c2.939-1.1,5.908-2.118,8.873-3.1.268-.088.368.317.116.417-5.281,2.064-10.68,4.239-15.914,6.75a61.241,61.241,0,0,0,19.271-.057.142.142,0,0,1,.075.274,37.991,37.991,0,0,1-20.446.305,95.54,95.54,0,0,0-9.7,5.431,24.306,24.306,0,0,1,7.839.641,59.557,59.557,0,0,0,13.774,1.561c.176-.006.221.28.043.311-7.991,1.376-15.547-2.256-23.467-1.311a61.366,61.366,0,0,0-8.249,6.736,62,62,0,0,0-12.03,16.974c-3.334,6.785-5.142,13.977-7.836,20.988a.255.255,0,0,1-.491-.136C406.607,379.892,413.489,364.646,423.56,354.793Z" transform="translate(-404.294 -330.455)"/><path class="ac" d="M433.866,335.478a9.1,9.1,0,0,1,2.046-2.483,8.068,8.068,0,0,1,2.36-1.766c.079-.031.125.079.076.132-.654.745-1.566,1.289-2.273,2s-1.3,1.556-2.022,2.26A.119.119,0,0,1,433.866,335.478Z" transform="translate(-390.499 -330.097)"/><path class="ac" d="M442.892,337.554c1.184-.3,2.439-.276,3.643-.522a34.433,34.433,0,0,0,3.533-1.058.143.143,0,0,1,.109.26c-1.945,1.154-5.015,2.137-7.285,1.693A.2.2,0,0,1,442.892,337.554Z" transform="translate(-386.345 -327.883)"/></g></g><g transform="translate(43.707 123.727)"><g transform="translate(3.119 3.249)"><path class="af" d="M394.981,361.973l1.048,11.912,3.56,40.217h31.5l4.447-40.217,1.313-11.912Z" transform="translate(-394.981 -361.973)"/><path class="ag" d="M394.981,361.973l1.048,11.912h39.5l1.313-11.912Z" transform="translate(-394.981 -361.973)"/></g><rect class="af" width="48.103" height="9.663" transform="translate(48.103 9.663) rotate(180)"/></g></g><g transform="translate(471.851 114.346)"><g transform="translate(6.871)"><path class="ah" d="M311.631,159.725V178.7h-5.361V159.725c0-7.214-5.479-13.08-12.22-13.08s-12.219,5.867-12.219,13.08V178.7H276.47V159.725c0-10.332,7.886-18.733,17.58-18.733S311.631,149.393,311.631,159.725Z" transform="translate(-276.47 -140.992)"/><path class="ah" d="M276.47,161.723l5.361.216v13.822H276.47Z" transform="translate(-276.47 -138.057)"/><path class="ah" d="M307.936,163V175.61h-5.361V162.785Z" transform="translate(-272.775 -137.907)"/></g><path class="p" d="M0,0H48.9V44.366H0Z" transform="translate(0 26.902)"/><path class="ai" d="M0,0H24.451V44.366H0Z" transform="translate(24.451 26.902)"/><path class="aj" d="M294.506,186.407l2.047,9.71h-8.687l2.047-9.71a4.344,4.344,0,1,1,4.594,0Z" transform="translate(-267.986 -135.697)"/></g><g class="ak" transform="translate(281.715 39.315) rotate(-14)"><g transform="translate(0 0.456)"><g transform="translate(0 0)"><path class="ag" d="M0,20.969V33.044a23.556,23.556,0,0,0,4.128,12.6L6.435,48.6A14.349,14.349,0,0,0,18.6,55.1H69.119l.383-1.3L81.884,8.432l10.391-5.6L90.728,0,79.118,6.295,75.138,20.969Zm3.605,3.605H74.252L69.269,42.958,66.64,52.694H18.6a11.565,11.565,0,0,1-9.462-5.435l-2.1-3.348A20.178,20.178,0,0,1,3.605,33.044Z"/><g transform="translate(6.976 42.725)"><path class="ag" d="M0,28.837a1.787,1.787,0,0,0,1.626,1.8H60.9c.9,0,1.577-1.269,1.577-2.164V.522c0-.308-.061-.276-.21-.522L59.664,9.968h-.788V27.032H1.626A1.788,1.788,0,0,0,0,28.837Z" transform="translate(0 0)"/></g><g transform="translate(19.059 22.667)"><rect class="ag" width="2.164" height="30.428" transform="translate(18.662 0)"/><g transform="translate(0 0)"><rect class="ag" width="2.164" height="30.428" transform="translate(37.775 0)"/><rect class="ag" width="2.164" height="30.428" transform="translate(0 0)"/></g></g><g transform="translate(3.052 31.617)"><rect class="ag" width="70.378" height="1.935"/><rect class="ag" width="65.543" height="1.935" transform="translate(1.763 10.592)"/></g></g><path class="ag" d="M0,6.989A6.989,6.989,0,1,0,6.989,0,6.989,6.989,0,0,0,0,6.989Zm2.771,0a4.219,4.219,0,1,1,4.218,4.219A4.218,4.218,0,0,1,2.771,6.989Z" transform="translate(53.298 75.584)"/><path class="ag" d="M0,6.989A6.989,6.989,0,1,0,6.989,0,6.989,6.989,0,0,0,0,6.989Zm2.771,0a4.218,4.218,0,1,1,4.218,4.219A4.218,4.218,0,0,1,2.771,6.989Z" transform="translate(9.865 75.584)"/></g><path class="ag" d="M0,3.284A3.283,3.283,0,0,0,3.284,6.567H14.21a3.283,3.283,0,0,0,3.283-3.283h0A3.284,3.284,0,0,0,14.21,0H3.284A3.284,3.284,0,0,0,0,3.284Z" transform="translate(83.527 0)"/></g></svg>